<?xml version="1.0" standalone="no"?>
<!DOCTYPE svg PUBLIC "-//W3C//DTD SVG 20010904//EN"
 "http://www.w3.org/TR/2001/REC-SVG-20010904/DTD/svg10.dtd">
<svg version="1.0" xmlns="http://www.w3.org/2000/svg"
 width="383.000000pt" height="268.000000pt" viewBox="0 0 383.000000 268.000000"
 preserveAspectRatio="xMidYMid meet">

<g transform="translate(0.000000,268.000000) scale(0.100000,-0.100000)"
fill="#000000" stroke="none">
<path d="M1290 2475 l0 -115 46 0 c91 0 134 40 134 124 0 69 -47 106 -136 106
l-44 0 0 -115z m114 74 c31 -15 50 -59 41 -99 -8 -36 -47 -60 -100 -60 l-35 0
0 85 0 85 35 0 c19 0 45 -5 59 -11z"/>
<path d="M1710 2555 c0 -14 -4 -25 -10 -25 -5 0 -10 -7 -10 -15 0 -8 5 -15 10
-15 6 0 10 -21 10 -48 0 -60 22 -94 58 -90 38 4 41 34 5 33 -27 0 -28 2 -31
53 l-3 52 30 0 c21 0 31 5 31 15 0 10 -10 15 -30 15 -25 0 -30 4 -30 25 0 16
-6 25 -15 25 -9 0 -15 -9 -15 -25z"/>
<path d="M1543 2523 c-30 -12 -11 -28 34 -28 61 0 68 -21 10 -29 -58 -9 -85
-36 -69 -71 14 -30 52 -41 83 -24 17 9 24 9 27 0 2 -6 8 -11 13 -11 5 0 9 34
9 75 0 63 -3 76 -19 85 -20 10 -66 12 -88 3z m87 -102 c0 -28 -70 -45 -85 -21
-12 19 16 40 51 40 27 0 34 -4 34 -19z"/>
<path d="M1853 2523 c-30 -12 -11 -28 34 -28 61 0 68 -21 10 -29 -58 -9 -85
-36 -69 -71 14 -30 52 -41 83 -24 17 9 24 9 27 0 2 -6 8 -11 13 -11 5 0 9 34
9 75 0 63 -3 76 -19 85 -20 10 -66 12 -88 3z m87 -102 c0 -28 -70 -45 -85 -21
-12 19 16 40 51 40 27 0 34 -4 34 -19z"/>
<path d="M1280 2085 l-225 -204 -5 32 c-5 30 -6 29 -61 -59 -31 -49 -59 -95
-63 -102 -4 -7 40 11 99 40 101 50 105 53 74 58 -33 5 -32 6 171 189 267 240
256 229 245 240 -6 5 -96 -69 -235 -194z"/>
<path d="M1614 2279 c-8 -13 -7 -14 250 -245 198 -177 199 -179 167 -184 -31
-5 -28 -7 64 -53 54 -26 99 -46 101 -44 3 2 -21 46 -53 97 -56 89 -58 92 -63
62 l-5 -30 -95 85 c-52 47 -154 139 -227 204 -81 74 -134 115 -139 108z"/>
<path d="M723 1595 c0 -38 2 -53 4 -32 2 20 2 52 0 70 -2 17 -4 1 -4 -38z"/>
<path d="M376 1628 c-9 -12 -16 -29 -16 -38 0 -24 29 -60 49 -60 11 0 21 -7
25 -15 3 -8 16 -14 28 -14 l23 2 -22 4 c-27 5 -29 18 -8 39 22 23 19 81 -4 94
-31 16 -59 12 -75 -12z m73 -2 c31 -37 -9 -103 -46 -80 -37 23 -24 94 17 94
10 0 23 -6 29 -14z"/>
<path d="M809 1633 c-2 -25 1 -54 7 -80 3 -16 11 -23 27 -22 17 1 18 2 5 6
-13 3 -18 14 -18 38 0 24 5 35 18 38 16 4 16 5 0 6 -10 0 -18 8 -18 16 0 21
-20 19 -21 -2z"/>
<path d="M989 1635 c-8 -36 5 -100 21 -101 9 0 10 1 3 3 -20 7 -16 71 5 76 15
4 15 5 0 6 -9 0 -18 9 -20 19 -3 15 -4 14 -9 -3z"/>
<path d="M1050 1640 c0 -5 5 -10 10 -10 6 0 10 5 10 10 0 6 -4 10 -10 10 -5 0
-10 -4 -10 -10z"/>
<path d="M1956 1628 c-9 -12 -16 -29 -16 -38 0 -24 29 -60 49 -60 11 0 21 -7
25 -15 3 -8 16 -14 28 -14 l23 2 -22 4 c-27 5 -29 18 -8 39 22 23 19 81 -4 94
-31 16 -59 12 -75 -12z m73 -2 c31 -37 -9 -103 -46 -80 -37 23 -24 94 17 94
10 0 23 -6 29 -14z"/>
<path d="M2409 1635 c-8 -36 5 -100 21 -101 9 0 10 1 3 3 -20 7 -16 71 5 76
15 4 15 5 0 6 -9 0 -18 9 -20 19 -3 15 -4 14 -9 -3z"/>
<path d="M2470 1640 c0 -5 5 -10 10 -10 6 0 10 5 10 10 0 6 -4 10 -10 10 -5 0
-10 -4 -10 -10z"/>
<path d="M2519 1635 c-2 -11 -2 -38 1 -60 4 -34 9 -40 30 -42 25 -3 25 -3 3 7
-17 7 -23 18 -23 39 0 23 5 31 23 34 22 4 22 4 0 6 -12 0 -23 9 -25 19 -3 15
-4 14 -9 -3z"/>
<path d="M2689 1633 c-2 -25 1 -54 7 -80 3 -16 11 -23 27 -22 17 1 18 2 5 6
-13 3 -18 14 -18 38 0 24 5 35 18 38 16 4 16 5 0 6 -10 0 -18 8 -18 16 0 21
-20 19 -21 -2z"/>
<path d="M2760 1640 c0 -5 5 -10 10 -10 6 0 10 5 10 10 0 6 -4 10 -10 10 -5 0
-10 -4 -10 -10z"/>
<path d="M514 1578 c1 -33 5 -43 19 -44 11 -1 12 0 3 3 -9 2 -17 21 -19 44
l-4 39 1 -42z"/>
<path d="M568 1579 c-2 -22 0 -43 4 -45 4 -3 8 15 8 40 0 57 -7 60 -12 5z"/>
<path d="M648 1613 c27 -5 30 -23 3 -23 -24 0 -45 -25 -37 -45 3 -10 16 -15
36 -13 30 2 31 4 28 43 -3 35 -6 40 -28 41 -22 1 -22 0 -2 -3z m22 -48 c0 -9
-7 -18 -16 -22 -18 -7 -39 11 -30 26 11 17 46 13 46 -4z"/>
<path d="M773 1575 c0 -27 2 -38 4 -22 2 15 2 37 0 50 -2 12 -4 0 -4 -28z"/>
<path d="M880 1612 c0 -5 11 -7 24 -5 13 3 27 0 30 -6 4 -7 -1 -11 -13 -11
-30 0 -55 -29 -40 -46 6 -8 19 -13 28 -13 13 1 13 2 -2 6 -26 7 -17 37 12 41
20 3 23 0 18 -17 -3 -12 -1 -24 5 -27 5 -4 8 11 6 38 -3 41 -5 43 -35 46 -18
2 -33 -1 -33 -6z"/>
<path d="M1050 1575 c0 -25 5 -45 10 -45 6 0 10 20 10 45 0 25 -4 45 -10 45
-5 0 -10 -20 -10 -45z"/>
<path d="M1108 1579 c10 -22 22 -41 27 -40 11 1 48 81 37 81 -4 0 -14 -17 -23
-38 l-15 -37 -14 38 c-8 20 -17 37 -22 37 -4 0 1 -18 10 -41z"/>
<path d="M1211 1611 c-7 -5 -13 -21 -13 -36 0 -31 16 -45 52 -44 23 1 23 2 -4
8 -44 9 -45 31 -2 31 39 0 41 2 26 31 -11 20 -36 24 -59 10z m49 -16 c0 -9 -9
-15 -25 -15 -24 0 -32 10 -18 23 12 13 43 7 43 -8z"/>
<path d="M2081 1590 c-1 -47 8 -59 47 -58 31 1 32 2 32 45 0 23 -4 43 -10 43
-5 0 -10 -16 -10 -35 0 -23 -6 -38 -15 -42 -21 -7 -27 0 -35 44 l-8 38 -1 -35z"/>
<path d="M2190 1612 c0 -5 11 -7 24 -5 13 3 26 1 30 -5 3 -5 -8 -12 -25 -16
-25 -5 -30 -10 -27 -28 2 -18 10 -23 36 -24 33 -1 33 0 30 40 -3 38 -5 41 -35
44 -18 2 -33 -1 -33 -6z m58 -49 c-4 -22 -48 -31 -48 -10 0 19 10 27 32 27 13
0 18 -6 16 -17z"/>
<path d="M2301 1571 l2 -46 6 40 c5 31 10 40 26 40 16 0 21 -9 26 -40 l7 -40
-2 45 c-1 44 -2 45 -33 46 -33 1 -33 1 -32 -45z"/>
<path d="M2470 1575 c0 -25 5 -45 10 -45 6 0 10 20 10 45 0 25 -4 45 -10 45
-5 0 -10 -20 -10 -45z"/>
<path d="M2590 1611 c0 -4 11 -6 25 -3 15 2 25 0 25 -7 0 -6 -8 -11 -19 -11
-24 0 -45 -25 -38 -45 4 -9 19 -14 42 -13 32 1 35 4 35 33 0 17 -5 36 -12 43
-14 14 -58 16 -58 3z m50 -45 c0 -19 -17 -29 -37 -22 -12 5 -13 9 -3 21 16 19
40 19 40 1z"/>
<path d="M2763 1575 c0 -27 2 -38 4 -22 2 15 2 37 0 50 -2 12 -4 0 -4 -28z"/>
<path d="M2805 1603 c4 -10 12 -30 17 -45 14 -38 23 -35 42 12 22 54 19 65 -4
16 l-18 -40 -16 37 c-8 20 -18 37 -22 37 -3 0 -3 -8 1 -17z"/>
<path d="M2908 1594 c-8 -18 -9 -30 -1 -42 11 -18 73 -30 73 -14 0 5 -10 7
-23 5 -14 -3 -29 2 -36 11 -12 14 -9 16 23 16 29 0 36 4 36 19 0 38 -55 42
-72 5z m60 -1 c2 -9 -7 -13 -28 -13 -28 0 -31 2 -20 15 15 18 41 16 48 -2z"/>
<path d="M101 1434 c0 -11 3 -14 6 -6 3 7 2 16 -1 19 -3 4 -6 -2 -5 -13z"/>
<path d="M131 1434 c0 -11 3 -14 6 -6 3 7 2 16 -1 19 -3 4 -6 -2 -5 -13z"/>
<path d="M1571 1434 c0 -11 3 -14 6 -6 3 7 2 16 -1 19 -3 4 -6 -2 -5 -13z"/>
<path d="M2155 1294 c-93 -86 -196 -178 -227 -205 l-57 -50 6 38 c4 24 2 34
-4 28 -8 -8 -90 -136 -117 -183 -9 -16 24 -3 129 51 66 33 69 38 27 49 -8 2
88 95 212 207 195 175 241 223 208 220 -4 0 -83 -70 -177 -155z"/>
<path d="M2437 1443 c-3 -5 98 -100 224 -213 197 -177 225 -205 204 -208 -14
-2 -25 -7 -25 -10 0 -8 191 -105 195 -100 1 2 -27 48 -62 102 -57 89 -63 96
-63 68 0 -18 -2 -32 -5 -32 -3 0 -105 90 -226 200 -122 110 -225 200 -230 200
-4 0 -10 -3 -12 -7z"/>
<path d="M176 1434 c6 -3 10 -17 8 -32 -2 -17 -1 -20 2 -7 4 11 11 26 16 33 8
9 4 12 -13 11 -13 0 -19 -3 -13 -5z"/>
<path d="M1601 1424 c0 -11 3 -14 6 -6 3 7 2 16 -1 19 -3 4 -6 -2 -5 -13z"/>
<path d="M1284 1405 c-4 -14 -4 -29 0 -32 3 -4 6 1 6 10 0 8 6 17 14 19 12 3
12 5 0 16 -11 10 -15 8 -20 -13z"/>
<path d="M237 1394 c3 -9 9 -11 12 -6 3 5 13 12 21 15 9 3 4 6 -12 6 -21 1
-26 -3 -21 -15z"/>
<path d="M415 1401 c-3 -5 -1 -12 5 -16 5 -3 10 1 10 9 0 18 -6 21 -15 7z"/>
<path d="M462 1385 c-17 -37 -14 -45 4 -12 9 16 14 31 11 33 -2 2 -9 -7 -15
-21z"/>
<path d="M517 1403 c-3 -5 8 -8 23 -8 15 0 26 3 23 8 -2 4 -13 7 -23 7 -10 0
-21 -3 -23 -7z"/>
<path d="M638 1403 c6 -2 18 -2 25 0 6 3 1 5 -13 5 -14 0 -19 -2 -12 -5z"/>
<path d="M769 1393 c-11 -15 -11 -16 1 -5 22 19 48 14 52 -10 3 -21 4 -21 9 5
6 24 3 27 -21 27 -15 0 -34 -8 -41 -17z"/>
<path d="M888 1403 c-10 -2 -18 -12 -18 -21 0 -11 3 -13 8 -6 4 6 16 16 27 22
20 12 14 13 -17 5z"/>
<path d="M970 1406 c0 -2 9 -6 20 -9 11 -3 18 -1 14 4 -5 9 -34 13 -34 5z"/>
<path d="M1057 1403 c-3 -5 8 -8 23 -8 15 0 26 3 23 8 -2 4 -13 7 -23 7 -10 0
-21 -3 -23 -7z"/>
<path d="M1151 1388 c1 -16 3 -18 6 -6 2 9 14 19 26 21 18 4 17 5 -5 6 -23 1
-28 -3 -27 -21z"/>
<path d="M1492 1404 c9 -3 19 -15 22 -27 4 -18 4 -18 3 3 -1 17 -8 25 -22 27
-14 1 -15 0 -3 -3z"/>
<path d="M614 1381 c1 -16 46 -36 46 -21 0 6 -9 10 -19 10 -11 0 -21 6 -24 13
-3 8 -4 7 -3 -2z"/>
<path d="M938 1375 c-14 -31 4 -55 41 -54 26 1 26 1 -3 8 -45 9 -45 31 1 33
38 1 38 1 5 5 -24 3 -32 8 -28 19 9 24 -4 15 -16 -11z"/>
<path d="M1450 1385 c0 -8 2 -15 4 -15 2 0 6 7 10 15 3 8 1 15 -4 15 -6 0 -10
-7 -10 -15z"/>
<path d="M505 1366 c-27 -20 -13 -47 25 -44 16 1 30 6 30 10 0 4 -13 5 -30 2
-23 -5 -30 -3 -30 10 0 21 49 33 61 15 7 -11 9 -10 9 4 0 21 -38 23 -65 3z"/>
<path d="M1045 1366 c-27 -20 -13 -47 25 -44 16 1 30 6 30 10 0 4 -13 5 -30 2
-23 -5 -30 -3 -30 10 0 21 49 33 61 15 7 -11 9 -10 9 4 0 21 -38 23 -65 3z"/>
<path d="M171 1354 c0 -11 3 -14 6 -6 3 7 2 16 -1 19 -3 4 -6 -2 -5 -13z"/>
<path d="M234 1345 c1 -12 9 -21 21 -22 14 -1 15 0 3 3 -9 3 -19 13 -21 22 -3
12 -4 11 -3 -3z"/>
<path d="M754 1345 c1 -15 8 -20 34 -21 23 -1 32 3 32 15 0 12 -3 12 -12 3
-18 -18 -46 -15 -51 6 -3 13 -4 12 -3 -3z"/>
<path d="M370 1338 c0 -23 7 -23 19 0 8 14 6 19 -5 19 -7 0 -14 -9 -14 -19z"/>
<path d="M861 1344 c0 -11 3 -14 6 -6 3 7 2 16 -1 19 -3 4 -6 -2 -5 -13z"/>
<path d="M1144 1340 c1 -8 10 -16 21 -17 15 -1 15 0 3 3 -9 3 -19 11 -21 17
-2 7 -3 5 -3 -3z"/>
<path d="M1272 1340 c0 -14 2 -19 5 -12 2 6 2 18 0 25 -3 6 -5 1 -5 -13z"/>
<path d="M1334 1340 c1 -8 10 -16 21 -17 15 -1 15 0 3 3 -9 3 -19 11 -21 17
-2 7 -3 5 -3 -3z"/>
<path d="M1441 1344 c0 -11 3 -14 6 -6 3 7 2 16 -1 19 -3 4 -6 -2 -5 -13z"/>
<path d="M1385 1340 c-3 -5 -1 -10 4 -10 6 0 11 5 11 10 0 6 -2 10 -4 10 -3 0
-8 -4 -11 -10z"/>
<path d="M1501 1334 c0 -11 3 -14 6 -6 3 7 2 16 -1 19 -3 4 -6 -2 -5 -13z"/>
<path d="M430 1329 c0 -5 5 -7 10 -4 6 3 10 8 10 11 0 2 -4 4 -10 4 -5 0 -10
-5 -10 -11z"/>
<path d="M625 1330 l-30 -8 27 -1 c15 0 30 4 33 9 3 6 5 9 3 9 -2 -1 -16 -5
-33 -9z"/>
<path d="M158 1323 c6 -2 18 -2 25 0 6 3 1 5 -13 5 -14 0 -19 -2 -12 -5z"/>
<path d="M758 1293 c6 -2 18 -2 25 0 6 3 1 5 -13 5 -14 0 -19 -2 -12 -5z"/>
<path d="M1410 790 l0 -60 33 0 c38 0 50 7 66 37 13 26 1 67 -24 77 -9 3 -30
6 -46 6 -29 0 -29 0 -29 -60z m78 38 c7 -7 12 -24 12 -38 0 -32 -17 -50 -47
-50 -21 0 -23 4 -23 50 0 46 2 50 23 50 13 0 28 -5 35 -12z"/>
<path d="M1949 835 c-8 -36 5 -100 21 -101 9 0 10 1 3 3 -20 7 -16 71 5 76 15
4 15 5 0 6 -9 0 -18 9 -20 19 -3 15 -4 14 -9 -3z"/>
<path d="M2658 839 c-26 -15 -25 -85 1 -99 24 -12 58 -13 65 -1 3 4 -6 6 -19
3 -33 -6 -55 14 -55 48 0 34 22 54 55 48 13 -3 22 -1 19 3 -7 12 -45 11 -66
-2z"/>
<path d="M2979 835 c-8 -36 5 -100 21 -101 9 0 10 1 3 3 -20 7 -16 71 5 76 15
4 15 5 0 6 -9 0 -18 9 -20 19 -3 15 -4 14 -9 -3z"/>
<path d="M1553 775 c0 -27 2 -38 4 -22 2 15 2 37 0 50 -2 12 -4 0 -4 -28z"/>
<path d="M1594 805 c-8 -20 4 -35 27 -35 11 0 19 -7 19 -16 0 -12 -7 -15 -25
-12 -13 3 -22 1 -19 -3 8 -13 40 -11 52 4 13 16 3 34 -22 38 -11 2 -21 10 -24
18 -3 10 2 13 21 9 15 -3 24 -1 21 3 -9 14 -44 10 -50 -6z"/>
<path d="M1692 808 c-27 -27 -7 -78 29 -78 10 0 20 4 23 8 2 4 -8 8 -22 7 -23
0 -27 4 -27 30 0 26 4 30 27 30 14 -1 24 3 22 7 -8 12 -38 10 -52 -4z"/>
<path d="M1770 773 c0 -23 5 -43 10 -43 6 0 10 16 10 35 0 28 5 38 23 44 19 8
18 9 -10 9 -32 -1 -33 -2 -33 -45z"/>
<path d="M1852 808 c-29 -29 -7 -78 34 -78 13 0 25 4 28 9 3 4 -5 6 -17 4 -14
-3 -29 2 -36 11 -12 14 -9 16 23 16 23 0 36 5 36 13 0 18 -21 37 -40 37 -9 0
-21 -5 -28 -12z m56 -15 c2 -9 -7 -13 -27 -13 -23 0 -29 4 -24 16 6 17 44 15
51 -3z"/>
<path d="M2018 794 c-8 -18 -9 -30 -1 -42 11 -18 73 -30 73 -14 0 5 -10 7 -23
5 -14 -3 -29 2 -36 11 -12 14 -9 16 23 16 29 0 36 4 36 19 0 38 -55 42 -72 5z
m60 -1 c2 -9 -7 -13 -28 -13 -28 0 -31 2 -20 15 15 18 41 16 48 -2z"/>
<path d="M2770 806 c-28 -35 11 -93 48 -70 35 22 22 84 -18 84 -10 0 -23 -7
-30 -14z m49 -15 c13 -24 -9 -57 -33 -48 -16 6 -22 47 -9 60 12 13 32 7 42
-12z"/>
<path d="M2871 771 l2 -46 6 40 c5 31 10 40 26 40 16 0 21 -9 26 -40 l7 -40
-2 45 c-1 44 -2 45 -33 46 -33 1 -33 1 -32 -45z"/>
<path d="M3053 775 c0 -27 2 -38 4 -22 2 15 2 37 0 50 -2 12 -4 0 -4 -28z"/>
<path d="M3090 775 c0 -27 2 -46 4 -44 8 8 10 78 3 85 -4 4 -7 -14 -7 -41z"/>
<path d="M3133 813 c12 -3 17 -15 17 -44 0 -21 5 -39 10 -39 13 0 13 46 0 71
-6 10 -18 18 -28 18 -16 -1 -16 -2 1 -6z"/>
<path d="M3204 780 c1 -44 2 -45 34 -46 32 -1 32 -1 31 45 l-2 46 -6 -40 c-5
-31 -10 -40 -26 -40 -16 0 -21 9 -26 40 l-7 40 2 -45z"/>
<path d="M3321 811 c-7 -5 -13 -21 -13 -36 0 -47 54 -63 73 -21 21 44 -19 83
-60 57z m44 -36 c0 -23 -4 -30 -20 -30 -21 0 -31 25 -21 51 11 28 41 12 41
-21z"/>
<path d="M3424 778 c1 -33 5 -43 19 -44 11 -1 12 0 3 3 -9 2 -17 21 -19 44
l-4 39 1 -42z"/>
<path d="M3478 779 c-2 -22 0 -43 4 -45 4 -3 8 15 8 40 0 57 -7 60 -12 5z"/>
<path d="M3523 804 c-7 -18 4 -31 30 -36 25 -4 17 -23 -10 -23 -14 1 -19 -3
-14 -8 5 -5 21 -7 36 -3 32 8 30 38 -3 46 -31 7 -28 26 4 23 13 -1 22 2 19 8
-10 15 -55 10 -62 -7z"/>
<path d="M1860 500 l0 -60 43 0 c50 0 67 -13 67 -52 0 -35 -30 -52 -81 -45
-51 7 -54 -19 -4 -29 63 -11 115 27 115 85 0 33 -33 62 -78 68 -38 5 -42 8
-42 34 0 29 1 29 60 29 47 0 60 3 60 15 0 12 -14 15 -70 15 l-70 0 0 -60z"/>
<path d="M1490 500 c-19 -19 -20 -24 -7 -43 19 -28 40 -32 61 -11 21 21 17 42
-11 61 -19 13 -24 12 -43 -7z"/>
<path d="M1601 496 c-16 -19 -11 -46 12 -60 25 -16 52 4 52 40 0 24 -5 30 -26
32 -14 2 -31 -4 -38 -12z"/>
<path d="M1670 415 c-26 -32 13 -81 48 -59 22 14 27 41 12 59 -16 19 -44 19
-60 0z"/>
<path d="M1420 405 c-15 -18 -4 -52 19 -60 40 -12 70 20 51 56 -13 22 -52 25
-70 4z"/>
<path d="M1552 398 c-17 -17 -15 -55 4 -66 43 -24 88 36 49 65 -23 16 -37 17
-53 1z"/>
<path d="M2700 230 l0 -80 415 0 415 0 0 80 0 80 -415 0 -415 0 0 -80z"/>
</g>
</svg>
