<?xml version="1.0" standalone="no"?>
<!DOCTYPE svg PUBLIC "-//W3C//DTD SVG 20010904//EN"
 "http://www.w3.org/TR/2001/REC-SVG-20010904/DTD/svg10.dtd">
<svg version="1.0" xmlns="http://www.w3.org/2000/svg"
 width="976.000000pt" height="544.000000pt" viewBox="0 0 976.000000 544.000000"
 preserveAspectRatio="xMidYMid meet">

<g transform="translate(0.000000,544.000000) scale(0.100000,-0.100000)"
fill="#000000" stroke="none">
<path d="M1150 5070 l0 -139 -57 -4 -58 -3 58 -2 57 -2 0 -215 0 -214 -57 -4
-58 -3 58 -2 57 -2 0 -215 0 -214 -57 -4 -58 -3 58 -2 57 -2 0 -215 0 -214
-57 -4 -58 -3 58 -2 57 -2 0 -210 0 -209 -57 -4 -58 -3 58 -2 57 -2 0 -215 0
-214 -57 -4 -58 -3 58 -2 57 -2 0 -140 0 -140 65 0 64 0 4 -57 3 -58 2 58 2
57 130 0 129 0 4 -57 3 -58 2 58 2 57 130 0 129 0 4 -57 3 -58 2 58 2 57 130
0 129 0 4 -57 3 -58 2 58 2 57 130 0 129 0 4 -57 3 -58 2 58 2 57 130 0 129 0
4 -57 3 -58 2 58 2 57 130 0 129 0 4 -57 3 -58 2 58 2 57 35 0 35 0 0 1380 0
1380 -915 0 -915 0 0 -140z m1820 -1240 l0 -1370 -905 0 -905 0 0 1370 0 1370
905 0 905 0 0 -1370z"/>
<path d="M1790 3345 c-107 -30 -226 -112 -346 -236 -138 -144 -262 -316 -216
-297 5 2 66 72 136 156 244 294 405 382 641 351 56 -7 137 -9 215 -5 81 5 143
3 175 -4 50 -11 204 -84 256 -120 15 -11 29 -20 32 -20 3 0 52 -27 110 -60
101 -58 127 -69 127 -52 0 13 -316 198 -435 254 l-70 33 -170 1 c-93 0 -222 4
-285 7 -90 6 -127 4 -170 -8z"/>
<path d="M4390 5070 l0 -139 -62 -4 -63 -3 63 -2 62 -2 0 -215 0 -214 -62 -4
-63 -3 63 -2 62 -2 0 -215 0 -214 -62 -4 -63 -3 63 -2 62 -2 0 -215 0 -214
-62 -4 -63 -3 63 -2 62 -2 0 -210 0 -209 -62 -4 -63 -3 63 -2 62 -2 0 -215 0
-214 -62 -4 -63 -3 63 -2 62 -2 0 -140 0 -140 35 0 34 0 4 -57 3 -58 2 58 2
57 135 0 134 0 4 -57 3 -58 2 58 2 57 135 0 134 0 4 -58 3 -57 2 58 2 57 135
0 134 0 4 -57 3 -58 2 58 2 57 135 0 134 0 4 -57 3 -58 2 58 2 57 135 0 134 0
4 -57 3 -58 2 58 2 57 135 0 134 0 4 -57 3 -58 2 58 c2 56 2 57 32 57 l30 0 0
1380 0 1380 -910 0 -910 0 0 -140z m1810 -1240 l0 -1370 -900 0 -900 0 0 1370
0 1370 900 0 900 0 0 -1370z"/>
<path d="M6119 3326 c-2 -2 -74 -7 -159 -10 -85 -3 -303 -12 -485 -20 -181 -8
-457 -20 -612 -26 -422 -17 -408 -15 -408 -31 0 -8 9 -13 20 -12 11 1 83 4
160 7 77 3 237 10 355 16 118 5 334 14 480 20 146 6 319 13 385 15 66 3 158 7
205 9 60 3 85 8 85 17 0 13 -18 23 -26 15z"/>
<path d="M7620 5070 l0 -139 -57 -4 -58 -3 58 -2 57 -2 0 -215 0 -214 -57 -4
-58 -3 58 -2 57 -2 0 -215 0 -214 -57 -4 -58 -3 58 -2 57 -2 0 -215 0 -214
-57 -4 -58 -3 58 -2 57 -2 0 -210 0 -209 -57 -4 -58 -3 58 -2 57 -2 0 -215 0
-214 -57 -4 -58 -3 58 -2 57 -2 0 -140 0 -140 120 0 119 0 4 -57 3 -58 2 58 2
57 160 0 159 0 4 -57 3 -58 2 58 2 57 165 0 164 0 4 -57 3 -58 2 58 2 57 165
0 164 0 4 -57 3 -58 2 58 2 57 160 0 159 0 4 -57 3 -58 2 58 2 57 120 0 120 0
0 1380 0 1380 -915 0 -915 0 0 -140z m1820 -1240 l0 -1370 -444 0 -445 0 1 75
c1 79 -3 91 -24 82 -9 -3 -13 -26 -11 -81 l2 -76 -319 0 c-317 0 -318 0 -323
22 -5 18 -8 19 -21 9 -9 -8 -13 -17 -10 -22 3 -5 -44 -9 -105 -9 l-111 0 0
1370 0 1370 905 0 905 0 0 -1370z"/>
<path d="M8180 5085 c0 -10 7 -15 18 -13 21 4 19 22 -2 26 -10 2 -16 -3 -16
-13z"/>
<path d="M9190 5085 c0 -10 7 -15 18 -13 21 4 19 22 -2 26 -10 2 -16 -3 -16
-13z"/>
<path d="M8522 5030 c0 -25 5 -40 13 -40 8 0 13 15 13 40 1 28 -4 40 -13 40
-9 0 -14 -12 -13 -40z"/>
<path d="M8184 5039 c-10 -17 13 -36 27 -22 12 12 4 33 -11 33 -5 0 -12 -5
-16 -11z"/>
<path d="M9197 5023 c-4 -3 -7 -12 -7 -20 0 -15 26 -18 34 -4 7 11 -18 33 -27
24z"/>
<path d="M9197 4933 c-4 -3 -7 -12 -7 -20 0 -15 26 -18 34 -4 7 11 -18 33 -27
24z"/>
<path d="M8184 4899 c-10 -17 13 -36 27 -22 12 12 4 33 -11 33 -5 0 -12 -5
-16 -11z"/>
<path d="M9192 4790 c-4 -12 -8 -53 -7 -93 0 -65 2 -72 20 -72 18 0 20 8 23
70 3 76 -3 115 -19 115 -5 0 -13 -9 -17 -20z"/>
<path d="M8520 4745 c0 -23 5 -35 14 -35 9 0 14 12 14 35 0 23 -5 35 -14 35
-9 0 -14 -12 -14 -35z"/>
<path d="M8852 4703 c2 -61 6 -78 18 -78 12 0 16 17 18 78 3 72 2 77 -18 77
-20 0 -21 -5 -18 -77z"/>
<path d="M8518 4670 c-5 -34 9 -55 27 -40 15 12 7 70 -10 70 -7 0 -15 -13 -17
-30z"/>
<path d="M8182 4643 c2 -10 10 -18 18 -18 8 0 16 8 18 18 2 12 -3 17 -18 17
-15 0 -20 -5 -18 -17z"/>
<path d="M8852 4543 c2 -10 10 -18 18 -18 8 0 16 8 18 18 2 12 -3 17 -18 17
-15 0 -20 -5 -18 -17z"/>
<path d="M9162 4283 c28 -3 38 -9 41 -26 l4 -22 2 22 c1 18 8 23 39 26 20 2 1
4 -43 4 -44 0 -63 -2 -43 -4z"/>
<path d="M9202 4150 c0 -19 2 -27 5 -17 2 9 2 25 0 35 -3 9 -5 1 -5 -18z"/>
<path d="M8832 4053 c31 -4 37 -8 41 -31 l4 -27 2 27 c1 22 6 27 34 31 17 2
-2 4 -43 4 -41 0 -58 -2 -38 -4z"/>
<path d="M9202 4035 c0 -16 2 -22 5 -12 2 9 2 23 0 30 -3 6 -5 -1 -5 -18z"/>
<path d="M8522 3994 c4 -21 22 -23 26 -1 2 10 -3 17 -13 17 -10 0 -15 -6 -13
-16z"/>
<path d="M8520 3908 c-1 -24 -2 -60 -1 -80 0 -34 -2 -37 -32 -41 -32 -4 -32
-4 5 -5 32 -2 37 -6 41 -29 l4 -28 2 28 c1 24 5 27 39 29 36 1 36 1 5 5 -30 4
-32 7 -32 41 2 78 -3 122 -16 122 -8 0 -14 -16 -15 -42z"/>
<path d="M9202 3920 c0 -19 2 -27 5 -17 2 9 2 25 0 35 -3 9 -5 1 -5 -18z"/>
<path d="M8872 3915 c0 -16 2 -22 5 -12 2 9 2 23 0 30 -3 6 -5 -1 -5 -18z"/>
<path d="M8187 3903 c-2 -5 -3 -44 -3 -88 1 -64 4 -80 16 -80 19 0 26 61 9 81
-8 10 -8 14 0 14 6 0 11 7 11 15 0 8 -5 15 -11 15 -8 0 -8 4 1 15 6 8 9 19 5
25 -7 12 -22 13 -28 3z"/>
<path d="M8872 3800 c0 -19 2 -27 5 -17 2 9 2 25 0 35 -3 9 -5 1 -5 -18z"/>
<path d="M9201 3818 c-1 -15 -11 -18 -66 -18 l-65 0 0 -240 0 -240 140 0 140
0 0 240 0 240 -69 0 c-58 0 -70 3 -74 18 -4 16 -5 16 -6 0z"/>
<path d="M8180 3690 c0 -23 4 -30 20 -30 16 0 20 7 20 30 0 23 -4 30 -20 30
-16 0 -20 -7 -20 -30z"/>
<path d="M8872 3685 c0 -16 2 -22 5 -12 2 9 2 23 0 30 -3 6 -5 -1 -5 -18z"/>
<path d="M8532 3645 c0 -16 2 -22 5 -12 2 9 2 23 0 30 -3 6 -5 -1 -5 -18z"/>
<path d="M7849 3641 c-6 -61 -2 -86 14 -89 16 -3 18 3 15 44 -2 27 -8 49 -15
52 -7 2 -13 -1 -14 -7z"/>
<path d="M8157 3643 c23 -3 33 -10 36 -26 l4 -22 2 22 c1 18 8 23 39 26 20 2
3 4 -38 4 -41 0 -61 -2 -43 -4z"/>
<path d="M8871 3578 c-1 -28 -2 -28 -71 -28 l-70 0 0 -195 0 -195 140 0 140 0
0 195 0 195 -64 0 c-63 0 -65 1 -69 28 l-4 27 -2 -27z"/>
<path d="M8532 3525 c0 -16 2 -22 5 -12 2 9 2 23 0 30 -3 6 -5 -1 -5 -18z"/>
<path d="M8192 3515 c0 -16 2 -22 5 -12 2 9 2 23 0 30 -3 6 -5 -1 -5 -18z"/>
<path d="M7822 3443 c31 -4 37 -8 41 -31 l4 -27 2 27 c1 22 6 27 34 31 17 2
-2 4 -43 4 -41 0 -58 -2 -38 -4z"/>
<path d="M8532 3415 c0 -16 2 -22 5 -12 2 9 2 23 0 30 -3 6 -5 -1 -5 -18z"/>
<path d="M8192 3395 c0 -16 2 -22 5 -12 2 9 2 23 0 30 -3 6 -5 -1 -5 -18z"/>
<path d="M8390 3215 l0 -145 140 0 140 0 0 145 0 145 -140 0 -140 0 0 -145z
m270 80 l0 -55 -130 0 -130 0 0 55 0 55 130 0 130 0 0 -55z m0 -160 l0 -55
-130 0 -130 0 0 55 0 55 130 0 130 0 0 -55z"/>
<path d="M7862 3305 c0 -16 2 -22 5 -12 2 9 2 23 0 30 -3 6 -5 -1 -5 -18z"/>
<path d="M8191 3288 c-1 -28 -2 -28 -66 -28 l-65 0 0 -145 0 -145 140 0 140 0
0 145 0 145 -69 0 c-68 0 -70 1 -74 28 l-4 27 -2 -27z"/>
<path d="M9202 3230 c0 -19 2 -27 5 -17 2 9 2 25 0 35 -3 9 -5 1 -5 -18z"/>
<path d="M7862 3190 c0 -19 2 -27 5 -17 2 9 2 25 0 35 -3 9 -5 1 -5 -18z"/>
<path d="M7720 3025 l0 -125 69 0 c58 0 70 -3 74 -17 4 -17 5 -17 6 0 1 14 11
17 66 17 l65 0 0 125 0 125 -140 0 -140 0 0 -125z m270 60 l0 -55 -130 0 -130
0 0 55 0 55 130 0 130 0 0 -55z m0 -140 l0 -35 -130 0 -130 0 0 35 0 35 130 0
130 0 0 -35z"/>
<path d="M9202 3115 c0 -16 2 -22 5 -12 2 9 2 23 0 30 -3 6 -5 -1 -5 -18z"/>
<path d="M8872 3080 c0 -19 2 -27 5 -17 2 9 2 25 0 35 -3 9 -5 1 -5 -18z"/>
<path d="M8532 3025 c0 -16 2 -22 5 -12 2 9 2 23 0 30 -3 6 -5 -1 -5 -18z"/>
<path d="M9202 3000 c0 -19 2 -27 5 -17 2 9 2 25 0 35 -3 9 -5 1 -5 -18z"/>
<path d="M8872 2965 c0 -16 2 -22 5 -12 2 9 2 23 0 30 -3 6 -5 -1 -5 -18z"/>
<path d="M8192 2935 c0 -16 2 -22 5 -12 2 9 2 23 0 30 -3 6 -5 -1 -5 -18z"/>
<path d="M8532 2910 c0 -19 2 -27 5 -17 2 9 2 25 0 35 -3 9 -5 1 -5 -18z"/>
<path d="M9202 2885 c0 -16 2 -22 5 -12 2 9 2 23 0 30 -3 6 -5 -1 -5 -18z"/>
<path d="M8872 2850 c0 -19 2 -27 5 -17 2 9 2 25 0 35 -3 9 -5 1 -5 -18z"/>
<path d="M8192 2820 c0 -19 2 -27 5 -17 2 9 2 25 0 35 -3 9 -5 1 -5 -18z"/>
<path d="M8532 2795 c0 -16 2 -22 5 -12 2 9 2 23 0 30 -3 6 -5 -1 -5 -18z"/>
<path d="M7862 2785 c0 -16 2 -22 5 -12 2 9 2 23 0 30 -3 6 -5 -1 -5 -18z"/>
<path d="M9202 2770 c0 -19 2 -27 5 -17 2 9 2 25 0 35 -3 9 -5 1 -5 -18z"/>
<path d="M8872 2735 c0 -16 2 -22 5 -12 2 9 2 23 0 30 -3 6 -5 -1 -5 -18z"/>
<path d="M8192 2705 c0 -16 2 -22 5 -12 2 9 2 23 0 30 -3 6 -5 -1 -5 -18z"/>
<path d="M8531 2688 c-1 -23 -6 -27 -38 -31 -21 -2 -2 -4 42 -4 44 0 63 2 43
4 -31 4 -37 8 -41 31 l-4 27 -2 -27z"/>
<path d="M7861 2673 c-1 -18 -8 -23 -38 -26 -21 -2 -4 -4 37 -4 41 0 61 2 43
4 -23 3 -33 10 -36 26 l-4 22 -2 -22z"/>
<path d="M9201 2663 c-1 -18 -8 -23 -38 -26 -21 -2 -2 -4 42 -4 44 0 63 2 43
4 -28 3 -38 9 -41 26 l-4 22 -2 -22z"/>
<path d="M8871 2628 c-1 -25 -5 -28 -38 -29 -31 -2 -33 -3 -10 -6 15 -2 27
-11 27 -19 0 -8 9 -14 20 -14 11 0 20 6 20 14 0 8 12 17 28 19 26 4 25 4 -5 6
-26 1 -32 6 -36 29 l-4 27 -2 -27z"/>
<path d="M8191 2598 c-1 -24 -5 -28 -33 -29 -31 -2 -31 -2 -5 -6 24 -4 27 -8
27 -44 0 -33 3 -40 18 -37 12 2 18 14 20 40 3 31 7 37 30 41 21 3 19 4 -10 6
-32 1 -37 5 -41 29 l-4 27 -2 -27z"/>
<path d="M7846 2542 c-8 -13 11 -35 23 -28 16 10 14 36 -3 36 -8 0 -17 -4 -20
-8z"/>
<path d="M768 5069 c-22 -12 -23 -52 -4 -68 24 -20 96 -9 113 16 13 19 12 24
-6 42 -23 23 -74 28 -103 10z m99 -25 c8 -23 -12 -38 -52 -38 -40 0 -60 15
-52 38 5 11 20 16 52 16 32 0 47 -5 52 -16z"/>
<path d="M4002 5064 c-42 -29 -15 -74 44 -74 49 0 74 16 74 46 0 41 -74 59
-118 28z m96 -17 c18 -21 -3 -41 -42 -41 -41 0 -62 15 -53 38 8 20 80 22 95 3z"/>
<path d="M7238 5069 c-22 -12 -23 -52 -4 -68 24 -20 96 -9 113 16 13 19 12 24
-6 42 -23 23 -74 28 -103 10z m99 -25 c8 -23 -12 -38 -52 -38 -40 0 -60 15
-52 38 5 11 20 16 52 16 32 0 47 -5 52 -16z"/>
<path d="M768 4959 c-22 -12 -23 -52 -4 -68 24 -20 96 -9 113 16 13 19 12 24
-6 42 -23 23 -74 28 -103 10z m99 -25 c8 -23 -12 -38 -52 -38 -40 0 -60 15
-52 38 5 11 20 16 52 16 32 0 47 -5 52 -16z"/>
<path d="M4002 4954 c-42 -29 -15 -74 44 -74 49 0 74 16 74 46 0 41 -74 59
-118 28z m96 -17 c18 -21 -3 -41 -42 -41 -41 0 -62 15 -53 38 8 20 80 22 95 3z"/>
<path d="M7238 4959 c-22 -12 -23 -52 -4 -68 24 -20 96 -9 113 16 13 19 12 24
-6 42 -23 23 -74 28 -103 10z m99 -25 c8 -23 -12 -38 -52 -38 -40 0 -60 15
-52 38 5 11 20 16 52 16 32 0 47 -5 52 -16z"/>
<path d="M827 4854 c-4 -4 -21 -7 -39 -8 -29 -1 -33 -4 -36 -32 -2 -21 2 -33
12 -37 19 -7 21 4 5 20 -6 6 -8 16 -5 22 10 16 36 13 36 -4 0 -8 5 -15 10 -15
6 0 10 9 10 20 0 13 7 20 20 20 26 0 36 -25 20 -45 -14 -16 -8 -31 8 -21 17
10 20 44 5 65 -14 21 -34 27 -46 15z"/>
<path d="M4056 4851 c-3 -4 -16 -6 -29 -4 -34 7 -53 -20 -39 -52 11 -25 32
-34 32 -15 0 6 -4 10 -10 10 -11 0 -14 33 -4 43 10 10 34 -4 35 -22 0 -12 3
-10 11 7 6 12 19 22 28 22 26 0 33 -30 14 -51 -10 -11 -13 -19 -8 -19 17 0 34
23 34 47 0 30 -50 57 -64 34z"/>
<path d="M7297 4854 c-4 -4 -21 -7 -39 -8 -29 -1 -33 -4 -36 -32 -2 -21 2 -33
12 -37 19 -7 21 4 5 20 -6 6 -8 16 -5 22 10 16 36 13 36 -4 0 -8 5 -15 10 -15
6 0 10 9 10 20 0 13 7 20 20 20 26 0 36 -25 20 -45 -14 -16 -8 -31 8 -21 17
10 20 44 5 65 -14 21 -34 27 -46 15z"/>
<path d="M768 4189 c-22 -12 -23 -52 -4 -68 24 -20 96 -9 113 16 13 19 12 24
-6 42 -23 23 -74 28 -103 10z m99 -25 c8 -23 -12 -38 -52 -38 -40 0 -60 15
-52 38 5 11 20 16 52 16 32 0 47 -5 52 -16z"/>
<path d="M4002 4184 c-42 -29 -15 -74 44 -74 49 0 74 16 74 46 0 41 -74 59
-118 28z m96 -17 c18 -21 -3 -41 -42 -41 -41 0 -62 15 -53 38 8 20 80 22 95 3z"/>
<path d="M7238 4189 c-22 -12 -23 -52 -4 -68 24 -20 96 -9 113 16 13 19 12 24
-6 42 -23 23 -74 28 -103 10z m99 -25 c8 -23 -12 -38 -52 -38 -40 0 -60 15
-52 38 5 11 20 16 52 16 32 0 47 -5 52 -16z"/>
<path d="M768 4079 c-22 -12 -23 -52 -4 -68 24 -20 96 -9 113 16 13 19 12 24
-6 42 -23 23 -74 28 -103 10z m99 -25 c8 -23 -12 -38 -52 -38 -40 0 -60 15
-52 38 5 11 20 16 52 16 32 0 47 -5 52 -16z"/>
<path d="M4002 4074 c-42 -29 -15 -74 44 -74 49 0 74 16 74 46 0 41 -74 59
-118 28z m96 -17 c18 -21 -3 -41 -42 -41 -41 0 -62 15 -53 38 8 20 80 22 95 3z"/>
<path d="M7238 4079 c-22 -12 -23 -52 -4 -68 24 -20 96 -9 113 16 13 19 12 24
-6 42 -23 23 -74 28 -103 10z m99 -25 c8 -23 -12 -38 -52 -38 -40 0 -60 15
-52 38 5 11 20 16 52 16 32 0 47 -5 52 -16z"/>
<path d="M342 4048 c-15 -15 -15 -51 0 -66 7 -7 24 -12 38 -12 14 0 31 5 38
12 16 16 15 53 -3 68 -12 10 -13 6 -8 -24 4 -29 2 -36 -11 -36 -12 0 -16 9
-16 35 0 36 -15 46 -38 23z m28 -33 c0 -26 -14 -33 -25 -15 -9 14 1 40 15 40
5 0 10 -11 10 -25z"/>
<path d="M3578 4049 c-21 -12 -24 -49 -6 -67 7 -7 24 -12 38 -12 14 0 31 5 38
12 17 17 15 53 -3 68 -17 14 -19 7 -5 -19 6 -13 5 -24 -5 -37 -13 -17 -14 -16
-15 24 0 44 -9 51 -42 31z m22 -34 c0 -14 -4 -25 -10 -25 -5 0 -10 11 -10 25
0 14 5 25 10 25 6 0 10 -11 10 -25z"/>
<path d="M6806 4044 c-19 -18 -20 -28 -6 -55 16 -29 78 -27 89 3 9 25 3 58
-10 58 -5 0 -7 -10 -4 -23 4 -15 1 -28 -9 -36 -14 -12 -16 -8 -16 28 0 45 -16
54 -44 25z m24 -29 c0 -14 -4 -25 -10 -25 -11 0 -14 33 -3 43 11 11 13 8 13
-18z"/>
<path d="M757 3973 c-11 -10 -8 -61 4 -68 17 -11 23 3 9 20 -11 13 -11 19 2
32 14 14 20 12 56 -21 21 -20 42 -36 46 -36 3 0 5 19 5 43 -2 41 -2 41 -8 9
l-6 -34 -29 31 c-28 29 -64 40 -79 24z"/>
<path d="M3992 3968 c-21 -21 -7 -68 20 -68 5 0 3 8 -3 19 -13 20 -6 51 12 51
6 0 26 -16 43 -35 42 -46 56 -45 56 5 0 22 -4 40 -10 40 -5 0 -10 -14 -10 -31
l0 -31 -26 31 c-27 32 -61 40 -82 19z"/>
<path d="M7227 3973 c-11 -10 -8 -61 4 -68 17 -11 23 3 9 20 -11 13 -11 19 2
32 14 14 20 12 56 -21 21 -20 42 -36 46 -36 3 0 5 19 5 43 -2 41 -2 41 -8 9
l-6 -34 -29 31 c-28 29 -64 40 -79 24z"/>
<path d="M332 3913 c3 -36 5 -38 40 -41 28 -2 39 1 47 17 6 11 8 27 5 35 -5
12 -2 15 10 10 19 -7 21 -35 4 -52 -9 -9 -8 -12 4 -12 22 0 32 34 18 60 -9 17
-21 20 -71 20 l-60 0 3 -37z m62 21 c23 -9 20 -42 -5 -49 -30 -10 -57 18 -39
39 14 18 21 19 44 10z"/>
<path d="M3562 3924 c-3 -35 14 -54 48 -54 33 0 54 23 47 51 -3 13 -1 19 6 16
7 -2 11 -19 10 -36 -1 -36 20 -38 25 -2 6 37 -15 51 -77 51 -54 0 -57 -1 -59
-26z m66 7 c23 -14 10 -46 -18 -46 -16 0 -26 6 -28 19 -3 16 12 36 28 36 3 0
11 -4 18 -9z"/>
<path d="M6793 3923 c-2 -35 13 -53 42 -53 42 0 55 11 55 43 0 30 1 30 17 14
15 -15 16 -20 5 -38 -11 -18 -11 -20 0 -17 7 3 13 19 13 39 l0 34 -65 3 c-65
3 -65 3 -67 -25z m77 1 c11 -12 11 -18 -2 -31 -20 -19 -58 -9 -58 17 0 30 40
40 60 14z"/>
<path d="M378 3843 c-47 -4 -48 -5 -48 -38 0 -19 5 -37 11 -40 16 -10 24 4 11
17 -16 16 -15 38 2 38 7 0 16 -14 20 -31 5 -25 10 -30 28 -27 20 3 23 9 24 46
0 23 0 41 0 40 -1 -1 -22 -3 -48 -5z m32 -43 c0 -11 -4 -20 -10 -20 -5 0 -10
2 -10 4 0 2 -3 11 -6 20 -4 11 -1 16 10 16 9 0 16 -8 16 -20z"/>
<path d="M3610 3841 c-39 -5 -45 -9 -48 -32 -2 -14 4 -31 12 -39 14 -11 15 -9
10 19 -8 40 8 40 23 0 18 -47 48 -36 49 19 1 23 1 41 0 40 0 0 -21 -4 -46 -7z
m33 -35 c6 -15 -1 -26 -15 -26 -4 0 -8 9 -8 20 0 23 15 27 23 6z"/>
<path d="M6845 3842 c-54 -5 -69 -30 -40 -68 14 -18 14 -17 8 15 -5 26 -3 33
8 29 7 -2 16 -15 19 -29 7 -30 45 -39 52 -12 2 10 2 29 -2 43 -4 22 -9 25 -45
22z m35 -48 c0 -8 -7 -14 -15 -14 -10 0 -15 10 -15 26 0 22 2 25 15 14 8 -7
15 -19 15 -26z"/>
<path d="M290 3752 c0 -6 17 -13 38 -17 65 -11 69 -21 13 -35 -30 -7 -51 -18
-51 -25 0 -8 25 -21 58 -31 37 -11 50 -19 37 -21 -59 -12 -95 -25 -95 -33 0
-5 6 -8 13 -5 6 2 38 11 70 20 31 8 57 19 57 23 0 5 -26 17 -57 27 l-58 18 55
17 c30 10 56 22 57 27 2 5 -22 16 -54 23 -32 7 -64 15 -70 17 -7 3 -13 1 -13
-5z"/>
<path d="M3520 3752 c0 -5 26 -15 58 -22 l57 -13 -57 -15 c-33 -8 -58 -20 -58
-27 0 -7 21 -18 48 -25 64 -18 71 -26 25 -34 -55 -10 -73 -16 -73 -26 0 -12
133 24 137 37 2 6 -22 19 -54 29 l-58 17 40 13 c22 7 48 13 58 13 9 1 17 7 17
15 0 8 -24 20 -65 30 -74 19 -75 19 -75 8z"/>
<path d="M6760 3751 c0 -5 17 -13 38 -17 65 -12 68 -20 13 -34 -64 -15 -67
-36 -6 -51 44 -11 70 -29 43 -29 -25 0 -88 -21 -88 -29 0 -12 123 24 128 37 2
6 -22 19 -55 28 l-58 18 40 12 c22 7 48 13 58 13 36 2 16 29 -30 40 -27 7 -56
14 -65 17 -10 3 -18 1 -18 -5z"/>
<path d="M768 3309 c-22 -12 -23 -52 -4 -68 24 -20 96 -9 113 16 13 19 12 24
-6 42 -23 23 -74 28 -103 10z m99 -25 c8 -23 -12 -38 -52 -38 -40 0 -60 15
-52 38 5 11 20 16 52 16 32 0 47 -5 52 -16z"/>
<path d="M4002 3304 c-42 -29 -15 -74 44 -74 49 0 74 16 74 46 0 41 -74 59
-118 28z m96 -17 c18 -21 -3 -41 -42 -41 -41 0 -62 15 -53 38 8 20 80 22 95 3z"/>
<path d="M7238 3309 c-22 -12 -23 -52 -4 -68 24 -20 96 -9 113 16 13 19 12 24
-6 42 -23 23 -74 28 -103 10z m99 -25 c8 -23 -12 -38 -52 -38 -40 0 -60 15
-52 38 5 11 20 16 52 16 32 0 47 -5 52 -16z"/>
<path d="M768 3209 c-22 -12 -23 -52 -4 -68 24 -20 96 -9 113 16 13 19 12 24
-6 42 -23 23 -74 28 -103 10z m99 -25 c8 -23 -12 -38 -52 -38 -40 0 -60 15
-52 38 5 11 20 16 52 16 32 0 47 -5 52 -16z"/>
<path d="M4002 3204 c-42 -29 -15 -74 44 -74 49 0 74 16 74 46 0 41 -74 59
-118 28z m96 -17 c18 -21 -3 -41 -42 -41 -41 0 -62 15 -53 38 8 20 80 22 95 3z"/>
<path d="M7238 3209 c-22 -12 -23 -52 -4 -68 24 -20 96 -9 113 16 13 19 12 24
-6 42 -23 23 -74 28 -103 10z m99 -25 c8 -23 -12 -38 -52 -38 -40 0 -60 15
-52 38 5 11 20 16 52 16 32 0 47 -5 52 -16z"/>
<path d="M750 3075 c0 -3 9 -16 21 -28 20 -21 21 -21 17 -2 -3 17 4 21 47 26
49 6 49 6 -17 7 -38 1 -68 0 -68 -3z"/>
<path d="M4000 3055 c28 -30 33 -31 25 -6 -5 18 0 20 47 24 45 3 42 4 -21 5
l-74 2 23 -25z"/>
<path d="M7220 3075 c0 -3 9 -16 21 -28 20 -21 21 -21 17 -2 -3 17 4 21 47 26
49 6 49 6 -17 7 -38 1 -68 0 -68 -3z"/>
<path d="M768 2819 c-22 -12 -23 -52 -4 -68 24 -20 96 -9 113 16 13 19 12 24
-6 42 -23 23 -74 28 -103 10z m99 -25 c8 -23 -12 -38 -52 -38 -40 0 -60 15
-52 38 5 11 20 16 52 16 32 0 47 -5 52 -16z"/>
<path d="M4002 2814 c-42 -29 -15 -74 44 -74 49 0 74 16 74 46 0 41 -74 59
-118 28z m96 -17 c18 -21 -3 -41 -42 -41 -41 0 -62 15 -53 38 8 20 80 22 95 3z"/>
<path d="M7238 2819 c-22 -12 -23 -52 -4 -68 24 -20 96 -9 113 16 13 19 12 24
-6 42 -23 23 -74 28 -103 10z m99 -25 c8 -23 -12 -38 -52 -38 -40 0 -60 15
-52 38 5 11 20 16 52 16 32 0 47 -5 52 -16z"/>
<path d="M805 2714 c-9 -10 -14 -26 -12 -36 4 -14 1 -18 -11 -16 -9 2 -20 17
-23 33 -6 29 -7 29 -8 -7 -1 -24 4 -38 12 -38 6 0 22 -3 34 -6 19 -5 21 -2 20
28 -2 27 2 34 21 36 27 4 40 -22 22 -43 -14 -16 -8 -31 8 -21 20 12 20 48 1
67 -23 23 -42 24 -64 3z"/>
<path d="M4048 2719 c-10 -5 -18 -21 -18 -35 0 -34 -24 -26 -28 9 -4 36 -22
34 -22 -2 0 -33 2 -35 43 -45 26 -6 27 -5 27 29 0 30 3 35 24 35 31 0 41 -28
20 -51 -19 -21 -6 -27 14 -7 18 18 14 56 -7 68 -24 12 -31 12 -53 -1z"/>
<path d="M7275 2714 c-9 -10 -14 -26 -12 -36 4 -14 1 -18 -11 -16 -9 2 -20 17
-23 33 -6 29 -7 29 -8 -7 -1 -24 4 -38 12 -38 6 0 22 -3 34 -6 19 -5 21 -2 20
28 -2 27 2 34 21 36 27 4 40 -22 22 -43 -14 -16 -8 -31 8 -21 20 12 20 48 1
67 -23 23 -42 24 -64 3z"/>
<path d="M1203 2173 c-7 -2 -13 -12 -13 -21 0 -13 2 -14 9 -4 5 8 17 12 27 10
32 -6 28 -36 -10 -70 -20 -17 -36 -35 -36 -40 0 -4 20 -8 45 -8 25 0 45 5 45
10 0 6 -14 10 -31 10 l-31 0 31 35 c35 41 37 48 15 69 -16 16 -29 19 -51 9z"/>
<path d="M1300 2161 c-23 -44 -5 -121 28 -121 29 0 42 21 42 70 0 25 -5 51
-12 58 -18 18 -46 14 -58 -7z m55 -51 c0 -38 -3 -45 -21 -48 -16 -2 -23 4 -28
22 -10 42 3 78 28 74 18 -3 21 -10 21 -48z"/>
<path d="M1753 2136 c-41 -57 -41 -66 -3 -66 22 0 30 -5 31 -17 0 -14 2 -15 6
-3 3 8 11 18 17 23 8 5 8 9 -1 15 -6 4 -13 27 -15 51 l-3 43 -32 -46z m27 -16
c0 -23 -4 -30 -20 -30 -24 0 -25 4 -4 35 21 32 24 31 24 -5z"/>
<path d="M1851 2171 c-10 -6 -15 -27 -15 -61 0 -49 12 -70 39 -70 28 0 40 21
40 70 0 62 -25 85 -64 61z m44 -61 c0 -38 -3 -45 -20 -45 -15 0 -21 8 -23 33
-4 45 4 64 25 60 14 -3 18 -13 18 -48z"/>
<path d="M2286 2158 c-21 -29 -20 -82 0 -103 20 -20 42 -16 60 10 20 30 -8 69
-43 60 -22 -5 -23 -4 -13 15 12 23 30 26 48 8 7 -7 12 -8 12 -2 0 14 -22 34
-36 34 -7 0 -20 -10 -28 -22z m49 -73 c0 -25 -40 -33 -49 -10 -9 24 2 37 27
33 14 -2 22 -10 22 -23z"/>
<path d="M2392 2168 c-7 -7 -12 -33 -12 -58 0 -49 13 -70 42 -70 22 0 38 29
38 70 0 59 -36 90 -68 58z m54 -32 c11 -45 1 -71 -26 -71 -21 0 -26 5 -28 33
-4 45 3 62 27 62 13 0 23 -9 27 -24z"/>
<path d="M2832 2171 c-8 -4 -13 -19 -11 -32 1 -13 -1 -34 -5 -47 -15 -44 35
-70 68 -36 11 11 13 20 6 33 -5 10 -6 28 -3 39 9 37 -24 63 -55 43z m43 -31
c0 -8 -10 -16 -22 -18 -18 -3 -23 2 -23 18 0 16 5 21 23 18 12 -2 22 -10 22
-18z m3 -62 c3 -13 -3 -18 -22 -18 -27 0 -41 14 -31 31 10 16 49 6 53 -13z"/>
<path d="M2932 2168 c-16 -16 -16 -100 0 -116 32 -32 68 -1 68 58 0 59 -36 90
-68 58z m54 -32 c11 -45 1 -71 -26 -71 -21 0 -26 5 -28 33 -4 45 3 62 27 62
13 0 23 -9 27 -24z"/>
<path d="M4272 2168 c-19 -19 -14 -30 7 -17 20 13 51 6 51 -12 0 -6 -16 -26
-35 -45 -19 -18 -35 -37 -35 -43 0 -6 18 -11 40 -11 22 0 40 5 40 10 0 6 -14
10 -32 10 l-32 0 32 33 c18 18 32 40 32 48 0 20 -20 39 -40 39 -9 0 -21 -5
-28 -12z"/>
<path d="M4381 2171 c-10 -6 -15 -27 -15 -61 0 -49 12 -70 39 -70 28 0 40 21
40 70 0 62 -25 85 -64 61z m44 -61 c0 -38 -3 -45 -20 -45 -15 0 -21 8 -23 33
-4 45 4 64 25 60 14 -3 18 -13 18 -48z"/>
<path d="M4480 2161 c-23 -44 -5 -121 28 -121 10 0 23 5 30 12 16 16 16 100 0
116 -18 18 -46 14 -58 -7z m55 -51 c0 -38 -3 -45 -21 -48 -25 -4 -38 32 -28
74 5 18 12 24 28 22 18 -3 21 -10 21 -48z"/>
<path d="M4592 2168 c-7 -7 -12 -16 -12 -22 0 -6 5 -5 12 2 17 17 48 15 48 -3
0 -8 -7 -15 -15 -15 -22 0 -18 -17 5 -23 24 -6 26 -35 4 -44 -9 -3 -25 -1 -35
6 -23 13 -25 -1 -4 -19 24 -20 65 3 65 34 0 14 -4 27 -9 30 -5 3 -7 15 -4 27
9 32 -31 51 -55 27z"/>
<path d="M5112 2168 c-19 -19 -14 -30 7 -17 20 13 51 6 51 -12 0 -6 -16 -26
-35 -45 -19 -18 -35 -37 -35 -43 0 -6 18 -11 40 -11 22 0 40 5 40 10 0 6 -14
10 -32 10 l-32 0 32 33 c18 18 32 40 32 48 0 20 -20 39 -40 39 -9 0 -21 -5
-28 -12z"/>
<path d="M5221 2171 c-10 -6 -15 -27 -15 -61 0 -49 12 -70 39 -70 28 0 40 21
40 70 0 62 -25 85 -64 61z m44 -61 c0 -38 -3 -45 -20 -45 -15 0 -21 8 -23 33
-4 45 4 64 25 60 14 -3 18 -13 18 -48z"/>
<path d="M5320 2161 c-23 -44 -5 -121 28 -121 29 0 42 21 42 70 0 25 -5 51
-12 58 -18 18 -46 14 -58 -7z m55 -51 c0 -38 -3 -45 -21 -48 -25 -4 -38 32
-28 74 5 18 12 24 28 22 18 -3 21 -10 21 -48z"/>
<path d="M5436 2164 c-33 -32 -12 -124 28 -124 33 0 49 57 21 80 -8 7 -23 9
-36 5 -18 -6 -21 -4 -16 10 4 9 7 19 7 21 0 9 37 3 48 -8 7 -7 12 -8 12 -2 0
14 -21 34 -36 34 -7 0 -20 -7 -28 -16z m49 -79 c0 -22 -31 -33 -47 -17 -17 17
-1 44 24 40 15 -2 23 -10 23 -23z"/>
<path d="M5952 2168 c-19 -19 -14 -30 7 -17 20 13 51 6 51 -12 0 -6 -16 -26
-35 -45 -19 -18 -35 -37 -35 -43 0 -6 18 -11 40 -11 22 0 40 5 40 10 0 6 -14
10 -32 10 l-32 0 32 33 c18 18 32 40 32 48 0 20 -20 39 -40 39 -9 0 -21 -5
-28 -12z"/>
<path d="M6061 2171 c-10 -6 -15 -27 -15 -61 0 -49 12 -70 39 -70 28 0 40 21
40 70 0 62 -25 85 -64 61z m44 -61 c0 -38 -3 -45 -20 -45 -15 0 -21 8 -23 33
-4 45 4 64 25 60 14 -3 18 -13 18 -48z"/>
<path d="M6160 2161 c-23 -44 -5 -121 28 -121 29 0 42 21 42 70 0 25 -5 51
-12 58 -18 18 -46 14 -58 -7z m55 -51 c0 -38 -3 -45 -21 -48 -16 -2 -23 4 -28
22 -10 42 3 78 28 74 18 -3 21 -10 21 -48z"/>
<path d="M6268 2155 c-16 -35 0 -61 37 -58 20 1 25 -2 23 -15 -4 -21 -38 -28
-49 -11 -4 7 -10 11 -13 8 -3 -3 0 -14 8 -24 20 -28 61 -7 70 35 13 68 -50
122 -76 65z m57 -20 c0 -21 -31 -33 -46 -18 -5 5 -7 17 -3 27 9 24 49 17 49
-9z"/>
<path d="M7851 2156 c-22 -24 -22 -25 -3 -19 19 5 21 0 25 -48 3 -48 4 -46 5
19 1 39 1 72 -1 72 -2 0 -14 -11 -26 -24z"/>
<path d="M8173 2173 c-7 -2 -13 -12 -13 -21 0 -13 2 -14 9 -4 5 8 17 12 27 10
32 -6 28 -36 -10 -70 -20 -17 -36 -35 -36 -40 0 -4 20 -8 45 -8 25 0 45 5 45
10 0 6 -14 10 -31 10 l-31 0 31 35 c35 41 37 48 15 69 -16 16 -29 19 -51 9z"/>
<path d="M8500 2160 c-7 -14 -7 -20 0 -20 5 0 10 5 10 10 0 6 9 10 20 10 25 0
26 -25 3 -35 -16 -6 -15 -8 5 -16 15 -6 22 -15 20 -26 -4 -22 -38 -30 -49 -12
-4 7 -11 10 -15 6 -10 -10 16 -37 37 -37 10 0 26 11 35 25 15 24 15 27 0 43
-12 14 -13 21 -4 30 8 8 8 15 -2 27 -17 21 -47 19 -60 -5z"/>
<path d="M8853 2136 c-41 -57 -41 -66 -3 -66 22 0 30 -5 31 -17 0 -14 2 -15 6
-3 3 8 11 18 17 23 8 5 8 9 -1 15 -6 4 -13 27 -15 51 l-3 43 -32 -46z m27 -16
c0 -23 -4 -30 -20 -30 -24 0 -25 4 -4 35 21 32 24 31 24 -5z"/>
<path d="M9176 2158 c-12 -45 -7 -53 27 -53 25 0 32 -4 32 -20 0 -24 -43 -34
-56 -14 -4 8 -11 11 -14 7 -8 -8 23 -38 40 -38 20 0 45 28 45 50 0 21 -34 45
-50 35 -6 -3 -10 3 -10 14 0 16 6 21 25 21 14 0 25 5 25 10 0 6 -13 10 -29 10
-21 0 -30 -6 -35 -22z"/>
<path d="M1950 1726 c0 -2 -11 -35 -25 -72 -16 -46 -19 -61 -9 -46 10 13 27
22 44 22 17 0 34 -9 44 -22 20 -27 19 -22 -14 60 -14 34 -28 62 -32 62 -5 0
-8 -2 -8 -4z m20 -35 c0 -5 3 -16 6 -25 4 -12 0 -16 -16 -16 -16 0 -20 4 -16
16 3 9 6 20 6 25 0 5 5 9 10 9 6 0 10 -4 10 -9z"/>
<path d="M5125 1693 c14 -21 25 -52 25 -70 0 -18 5 -33 10 -33 6 0 10 15 10
33 0 18 11 49 25 70 14 20 21 37 16 37 -5 0 -18 -13 -28 -30 -9 -16 -20 -30
-23 -30 -3 0 -14 14 -23 30 -10 17 -23 30 -28 30 -5 0 2 -17 16 -37z"/>
<path d="M7870 1660 l0 -70 50 0 c28 0 50 5 50 10 0 6 -20 10 -45 10 -38 0
-45 3 -45 20 0 17 7 20 40 20 22 0 40 5 40 10 0 6 -18 10 -40 10 -33 0 -40 3
-40 20 0 17 7 20 40 20 22 0 40 5 40 10 0 6 -20 10 -45 10 l-45 0 0 -70z"/>
<path d="M8050 1705 c0 -18 -4 -23 -15 -19 -22 9 -45 -14 -45 -46 0 -33 16
-48 53 -48 27 0 27 1 27 69 0 39 -4 69 -10 69 -5 0 -10 -11 -10 -25z m0 -50
c10 -12 10 -18 0 -30 -25 -30 -61 -7 -46 30 3 8 12 15 19 15 8 0 20 -7 27 -15z"/>
<path d="M8460 1720 c0 -5 5 -10 10 -10 6 0 10 5 10 10 0 6 -4 10 -10 10 -5 0
-10 -4 -10 -10z"/>
<path d="M8782 1663 l-2 -73 40 0 c22 0 40 5 40 10 0 6 -16 10 -35 10 l-34 0
-4 63 -3 62 -2 -72z"/>
<path d="M9183 1660 c0 -41 2 -58 4 -37 2 20 2 54 0 75 -2 20 -4 3 -4 -38z"/>
<path d="M8412 1704 c-6 -11 -9 -29 -7 -40 2 -10 6 -31 10 -46 3 -17 12 -28
21 -28 14 0 14 3 4 15 -7 9 -10 29 -8 48 3 17 2 41 -2 52 -7 19 -7 19 -18 -1z"/>
<path d="M2045 1674 c-31 -31 -3 -91 37 -81 12 4 18 1 15 -6 -2 -7 -16 -12
-31 -12 -30 1 -30 -19 0 -23 35 -4 47 14 52 76 l4 59 -31 1 c-17 0 -38 -6 -46
-14z m50 -34 c0 -16 -6 -26 -18 -28 -19 -4 -32 20 -23 44 9 25 41 13 41 -16z"/>
<path d="M2158 1679 c-25 -14 -23 -65 2 -79 12 -6 30 -8 40 -5 30 10 24 22 -9
17 -16 -2 -32 1 -35 7 -5 7 7 11 33 11 45 0 48 5 25 38 -17 24 -30 27 -56 11z
m47 -19 c4 -6 -7 -10 -25 -10 -18 0 -29 4 -25 10 3 6 15 10 25 10 10 0 22 -4
25 -10z"/>
<path d="M5228 1679 c-25 -14 -23 -65 2 -79 12 -6 30 -8 40 -5 30 10 24 22 -9
17 -16 -2 -32 1 -35 7 -5 7 7 11 33 11 45 0 48 5 25 38 -17 24 -30 27 -56 11z
m47 -19 c4 -6 -7 -10 -25 -10 -18 0 -29 4 -25 10 3 6 15 10 25 10 10 0 22 -4
25 -10z"/>
<path d="M5330 1675 c-11 -13 -8 -14 21 -9 23 5 31 3 24 -4 -5 -5 -19 -12 -30
-14 -14 -2 -20 -11 -20 -28 0 -22 4 -25 38 -25 36 -1 37 0 37 35 0 55 -40 81
-70 45z m48 -47 c-5 -15 -48 -24 -48 -10 0 14 12 22 33 22 10 0 17 -5 15 -12z"/>
<path d="M5432 1635 c1 -44 2 -45 5 -12 2 21 11 41 19 44 21 8 17 22 -6 20
-17 -1 -20 -8 -18 -52z"/>
<path d="M8100 1651 c0 -44 11 -56 53 -56 26 0 27 2 27 48 0 56 -17 64 -22 10
-2 -27 -8 -39 -20 -41 -15 -3 -18 4 -18 37 0 23 -4 41 -10 41 -5 0 -10 -18
-10 -39z"/>
<path d="M8223 1682 c-12 -8 -18 -31 -15 -64 2 -19 32 -31 56 -22 25 10 19 20
-11 19 -23 0 -28 4 -28 25 0 21 4 25 28 23 29 -2 37 11 11 21 -20 8 -26 7 -41
-2z"/>
<path d="M8310 1675 c-10 -12 -6 -13 27 -8 26 4 35 2 28 -5 -5 -6 -21 -12 -35
-14 -19 -2 -25 -9 -25 -28 0 -22 4 -25 40 -26 l40 -1 -4 41 c-2 23 -9 44 -15
48 -18 12 -43 9 -56 -7z m60 -45 c0 -6 -7 -13 -15 -16 -20 -8 -48 3 -40 16 8
13 55 13 55 0z"/>
<path d="M8460 1640 c0 -27 5 -50 10 -50 6 0 10 23 10 50 0 28 -4 50 -10 50
-5 0 -10 -22 -10 -50z"/>
<path d="M8516 1674 c-9 -8 -16 -24 -16 -34 0 -20 25 -50 41 -50 27 0 49 22
49 50 0 44 -44 64 -74 34z m58 -19 c8 -23 -4 -45 -25 -45 -22 0 -34 22 -25 45
3 8 14 15 25 15 10 0 21 -7 25 -15z"/>
<path d="M8610 1639 c0 -57 17 -66 22 -11 2 29 7 37 23 37 16 0 21 -9 26 -40
l6 -40 2 48 c0 26 -2 48 -6 48 -5 1 -23 3 -40 5 l-33 2 0 -49z"/>
<path d="M8892 1678 c-7 -7 -12 -24 -12 -38 0 -45 43 -67 70 -35 11 13 8 14
-18 9 -17 -4 -32 -1 -36 5 -5 7 5 11 28 11 28 0 36 4 36 18 0 22 -19 42 -40
42 -9 0 -21 -5 -28 -12z m53 -18 c4 -6 -7 -10 -25 -10 -18 0 -29 4 -25 10 3 6
15 10 25 10 10 0 22 -4 25 -10z"/>
<path d="M8989 1644 c10 -25 22 -44 27 -43 11 2 45 89 34 89 -4 0 -11 -14 -16
-31 -5 -17 -13 -31 -19 -31 -5 0 -14 14 -19 31 -5 17 -12 31 -16 31 -5 0 0
-21 9 -46z"/>
<path d="M9088 1679 c-25 -14 -23 -65 2 -79 12 -6 30 -8 40 -5 30 10 24 22 -9
17 -16 -2 -32 1 -35 7 -5 7 7 11 33 11 45 0 48 5 25 38 -17 24 -30 27 -56 11z
m47 -19 c4 -6 -7 -10 -25 -10 -18 0 -29 4 -25 10 3 6 15 10 25 10 10 0 22 -4
25 -10z"/>
<path d="M7141 899 c-13 -38 -14 -49 -2 -31 6 10 13 2 25 -27 9 -23 16 -46 16
-51 0 -15 -70 -12 -71 3 0 6 -5 1 -10 -12 -5 -13 -7 -26 -4 -29 3 -3 5 0 5 6
0 7 17 12 44 12 40 0 45 -3 54 -30 9 -24 8 -31 -6 -40 -13 -7 -5 -9 33 -9 37
0 45 2 29 9 -15 6 -30 38 -58 119 -21 61 -40 111 -41 111 -2 0 -8 -14 -14 -31z"/>
<path d="M198 913 c21 -4 22 -9 22 -108 0 -99 -1 -104 -22 -108 -13 -2 2 -5
32 -5 42 -1 50 1 33 8 -22 9 -23 15 -23 105 0 90 1 96 23 105 17 7 9 9 -33 8
-30 0 -45 -3 -32 -5z"/>
<path d="M2498 824 c2 -67 -1 -101 -10 -112 -10 -12 -10 -14 0 -8 6 4 12 2 12
-3 0 -6 7 -11 16 -11 11 0 14 5 10 16 -3 9 -6 60 -6 115 0 73 -3 99 -13 99 -9
0 -11 -24 -9 -96z"/>
<path d="M3222 911 c2 -7 7 -12 11 -12 12 1 9 15 -3 20 -7 2 -11 -2 -8 -8z"/>
<path d="M4128 811 c3 -99 2 -110 -15 -114 -10 -3 0 -5 22 -5 22 0 34 2 28 5
-9 3 -13 36 -13 114 0 80 -3 109 -12 109 -10 0 -12 -27 -10 -109z"/>
<path d="M4662 911 c2 -7 7 -12 11 -12 12 1 9 15 -3 20 -7 2 -11 -2 -8 -8z"/>
<path d="M5528 811 c3 -99 2 -110 -15 -114 -10 -3 0 -5 22 -5 22 0 34 2 28 5
-9 3 -13 36 -13 114 0 80 -3 109 -12 109 -10 0 -12 -27 -10 -109z"/>
<path d="M6868 811 c3 -99 2 -110 -15 -114 -10 -3 0 -5 22 -5 22 0 34 2 28 5
-9 3 -13 36 -13 114 0 80 -3 109 -12 109 -10 0 -12 -27 -10 -109z"/>
<path d="M7438 811 c3 -99 2 -110 -15 -114 -10 -3 0 -5 22 -5 22 0 34 2 28 5
-9 3 -13 36 -13 114 0 80 -3 109 -12 109 -10 0 -12 -27 -10 -109z"/>
<path d="M8006 913 c-11 -11 -6 -23 9 -23 8 0 15 4 15 9 0 13 -16 22 -24 14z"/>
<path d="M8806 913 c-11 -11 -6 -23 9 -23 8 0 15 4 15 9 0 13 -16 22 -24 14z"/>
<path d="M3178 904 c-5 -4 -8 -20 -8 -35 0 -18 -6 -29 -17 -32 -17 -4 -17 -5
0 -6 14 -1 17 -11 17 -65 0 -53 -3 -65 -17 -69 -10 -3 2 -5 27 -5 25 0 37 2
28 5 -15 4 -18 16 -18 68 0 58 2 64 23 68 22 4 22 4 0 6 -17 1 -22 8 -25 37
-2 20 -6 32 -10 28z"/>
<path d="M4618 904 c-5 -4 -8 -20 -8 -35 0 -18 -6 -29 -17 -32 -17 -4 -17 -5
0 -6 14 -1 17 -11 17 -65 0 -53 -3 -65 -17 -69 -10 -3 2 -5 27 -5 25 0 37 2
28 5 -15 4 -18 16 -18 68 0 58 2 64 23 68 22 4 22 4 0 6 -17 1 -22 8 -25 37
-2 20 -6 32 -10 28z"/>
<path d="M2771 878 c0 -9 -11 -24 -23 -32 -18 -13 -19 -16 -5 -16 14 0 17 -10
17 -59 0 -60 15 -88 42 -78 8 4 7 6 -4 6 -15 1 -18 11 -18 65 0 59 2 65 23 69
22 4 22 4 0 6 -16 1 -23 9 -26 29 -2 15 -5 19 -6 10z"/>
<path d="M5411 878 c0 -9 -11 -24 -23 -32 -18 -13 -19 -16 -5 -16 14 0 17 -10
17 -59 0 -60 15 -88 42 -78 8 4 7 6 -4 6 -15 1 -18 11 -18 65 0 59 2 65 23 69
22 4 22 4 0 6 -16 1 -23 9 -26 29 -2 15 -5 19 -6 10z"/>
<path d="M6451 878 c0 -9 -11 -24 -23 -32 -18 -13 -19 -16 -5 -16 14 0 17 -10
17 -59 0 -60 15 -88 42 -78 8 4 7 6 -4 6 -15 1 -18 11 -18 65 0 59 2 65 23 69
22 4 22 4 0 6 -16 1 -23 9 -26 29 -2 15 -5 19 -6 10z"/>
<path d="M7331 878 c0 -9 -11 -24 -23 -32 -18 -13 -19 -16 -5 -16 14 0 17 -10
17 -59 0 -60 15 -88 42 -78 8 4 7 6 -4 6 -15 1 -18 11 -18 65 0 59 2 65 23 69
22 4 22 4 0 6 -16 1 -23 9 -26 29 -2 15 -5 19 -6 10z"/>
<path d="M7891 878 c0 -9 -11 -24 -23 -32 -18 -13 -19 -16 -5 -16 14 0 17 -10
17 -59 0 -60 15 -88 42 -78 8 4 7 6 -4 6 -15 1 -18 11 -18 65 0 59 2 65 23 69
22 4 22 4 0 6 -16 1 -23 9 -26 29 -2 15 -5 19 -6 10z"/>
<path d="M328 771 c4 -61 2 -70 -14 -74 -11 -3 -1 -5 21 -5 22 0 34 2 28 5 -9
3 -13 28 -13 74 0 49 -4 69 -13 69 -9 0 -12 -18 -9 -69z"/>
<path d="M408 828 c16 -16 16 -125 0 -131 -7 -3 5 -5 27 -5 22 0 32 2 23 5
-15 4 -18 16 -18 62 0 54 -11 81 -34 81 -6 0 -5 -5 2 -12z"/>
<path d="M548 833 c7 -3 16 -2 19 1 4 3 -2 6 -13 5 -11 0 -14 -3 -6 -6z"/>
<path d="M828 771 c4 -61 2 -70 -14 -74 -11 -3 1 -5 26 -5 25 0 37 2 28 5 -15
4 -18 16 -18 74 0 49 -4 69 -13 69 -9 0 -12 -18 -9 -69z"/>
<path d="M908 833 c8 -3 12 -27 12 -68 0 -41 -4 -65 -12 -68 -7 -3 5 -5 27 -5
22 0 32 2 22 5 -15 4 -18 14 -16 58 3 53 -11 86 -35 84 -7 0 -6 -2 2 -6z"/>
<path d="M1004 824 c23 -22 22 -110 -1 -123 -14 -8 -10 -10 22 -11 22 0 35 4
29 8 -6 4 -13 33 -16 65 -3 35 -10 62 -19 68 -23 14 -32 10 -15 -7z"/>
<path d="M1165 816 c9 -14 14 -30 10 -36 -3 -5 1 -10 10 -10 12 0 15 5 11 16
-3 9 -6 20 -6 24 0 5 -9 14 -21 20 -20 11 -20 11 -4 -14z"/>
<path d="M1416 832 c-2 -4 -1 -14 5 -22 7 -12 9 -10 9 8 0 23 -5 28 -14 14z"/>
<path d="M1498 778 c6 -90 22 -97 22 -10 0 53 -4 72 -13 72 -10 0 -12 -15 -9
-62z"/>
<path d="M1584 824 c3 -9 6 -42 6 -75 0 -48 3 -59 16 -59 11 0 14 5 10 16 -3
9 -6 42 -6 75 0 48 -3 59 -16 59 -11 0 -14 -5 -10 -16z"/>
<path d="M1668 828 c7 -7 12 -38 12 -69 0 -46 -3 -58 -17 -62 -10 -3 2 -5 27
-5 25 0 37 2 28 5 -14 3 -18 15 -18 51 0 63 -9 92 -28 92 -12 0 -13 -3 -4 -12z"/>
<path d="M1740 826 c0 -9 5 -16 10 -16 6 0 10 4 10 9 0 6 -4 13 -10 16 -5 3
-10 -1 -10 -9z"/>
<path d="M1789 831 c8 -5 27 -40 41 -77 15 -37 30 -62 34 -56 3 5 -3 32 -15
58 -11 27 -18 56 -16 66 4 15 -1 18 -26 18 -23 0 -28 -3 -18 -9z"/>
<path d="M1897 819 c4 -14 8 -17 13 -9 4 7 14 16 21 21 10 6 6 9 -13 9 -22 0
-25 -4 -21 -21z"/>
<path d="M2045 816 c9 -14 14 -30 10 -36 -3 -5 1 -10 10 -10 12 0 15 5 11 16
-3 9 -6 20 -6 24 0 5 -9 14 -21 20 -20 11 -20 11 -4 -14z"/>
<path d="M2111 830 c9 -5 27 -39 40 -75 12 -36 27 -61 31 -57 5 5 -1 31 -12
58 -12 26 -19 56 -17 66 4 15 -1 18 -26 18 -25 -1 -29 -3 -16 -10z"/>
<path d="M2217 819 c4 -14 8 -17 13 -9 4 7 14 16 21 21 10 6 6 9 -13 9 -22 0
-25 -4 -21 -21z"/>
<path d="M3428 828 c7 -7 12 -38 12 -69 0 -46 -3 -58 -17 -62 -10 -3 2 -5 27
-5 25 0 37 2 28 5 -14 3 -18 15 -18 51 0 63 -9 92 -28 92 -12 0 -13 -3 -4 -12z"/>
<path d="M3500 826 c0 -9 5 -16 10 -16 6 0 10 4 10 9 0 6 -4 13 -10 16 -5 3
-10 -1 -10 -9z"/>
<path d="M3678 771 c4 -61 2 -70 -14 -74 -11 -3 1 -5 26 -5 25 0 37 2 28 5
-15 4 -18 16 -18 74 0 49 -4 69 -13 69 -9 0 -12 -18 -9 -69z"/>
<path d="M3758 833 c8 -3 12 -27 12 -68 0 -41 -4 -65 -12 -68 -7 -3 5 -5 27
-5 22 0 32 2 22 5 -15 4 -18 14 -16 58 3 53 -11 86 -35 84 -7 0 -6 -2 2 -6z"/>
<path d="M3854 824 c23 -22 22 -110 -1 -123 -14 -8 -10 -10 22 -11 22 0 35 4
29 8 -6 4 -13 33 -16 65 -3 35 -10 62 -19 68 -23 14 -32 10 -15 -7z"/>
<path d="M4285 816 c9 -14 14 -30 10 -36 -3 -5 1 -10 10 -10 12 0 15 5 11 16
-3 9 -6 20 -6 24 0 5 -9 14 -21 20 -20 11 -20 11 -4 -14z"/>
<path d="M4426 832 c-2 -4 -1 -14 5 -22 7 -12 9 -10 9 8 0 23 -5 28 -14 14z"/>
<path d="M4698 828 c7 -7 12 -38 12 -69 0 -46 -3 -58 -17 -62 -10 -3 2 -5 27
-5 25 0 37 2 28 5 -14 3 -18 15 -18 51 0 63 -9 92 -28 92 -12 0 -13 -3 -4 -12z"/>
<path d="M4770 826 c0 -9 5 -16 10 -16 6 0 10 4 10 9 0 6 -4 13 -10 16 -5 3
-10 -1 -10 -9z"/>
<path d="M5008 771 c4 -61 2 -70 -14 -74 -11 -3 1 -5 26 -5 25 0 37 2 28 5
-15 4 -18 16 -18 74 0 49 -4 69 -13 69 -9 0 -12 -18 -9 -69z"/>
<path d="M5088 833 c8 -3 12 -27 12 -68 0 -41 -4 -65 -12 -68 -7 -3 5 -5 27
-5 22 0 32 2 22 5 -15 4 -18 14 -16 58 3 53 -11 86 -35 84 -7 0 -6 -2 2 -6z"/>
<path d="M5184 824 c23 -22 22 -110 -1 -123 -14 -8 -10 -10 22 -11 22 0 35 4
29 8 -6 4 -13 33 -16 65 -3 35 -10 62 -19 68 -23 14 -32 10 -15 -7z"/>
<path d="M5608 828 c16 -16 16 -125 0 -131 -7 -3 5 -5 27 -5 22 0 32 2 23 5
-15 4 -18 16 -18 62 0 54 -11 81 -34 81 -6 0 -5 -5 2 -12z"/>
<path d="M5775 816 c9 -14 14 -30 10 -36 -3 -5 1 -10 10 -10 12 0 15 5 11 16
-3 9 -6 20 -6 24 0 5 -9 14 -21 20 -20 11 -20 11 -4 -14z"/>
<path d="M6008 833 c7 -3 16 -2 19 1 4 3 -2 6 -13 5 -11 0 -14 -3 -6 -6z"/>
<path d="M6185 816 c9 -14 14 -30 10 -36 -3 -5 1 -10 10 -10 12 0 15 5 11 16
-3 9 -6 20 -6 24 0 5 -9 14 -21 20 -20 11 -20 11 -4 -14z"/>
<path d="M6268 771 c4 -61 2 -70 -14 -74 -11 -3 -1 -5 21 -5 22 0 34 2 28 5
-9 3 -13 28 -13 74 0 49 -4 69 -13 69 -9 0 -12 -18 -9 -69z"/>
<path d="M6348 828 c16 -16 16 -125 0 -131 -7 -3 5 -5 27 -5 22 0 32 2 23 5
-15 4 -18 16 -18 62 0 54 -11 81 -34 81 -6 0 -5 -5 2 -12z"/>
<path d="M6558 828 c7 -7 12 -38 12 -69 0 -46 -3 -58 -17 -62 -10 -3 2 -5 27
-5 25 0 37 2 28 5 -14 3 -18 15 -18 51 0 63 -9 92 -28 92 -12 0 -13 -3 -4 -12z"/>
<path d="M6630 826 c0 -9 5 -16 10 -16 6 0 10 4 10 9 0 6 -4 13 -10 16 -5 3
-10 -1 -10 -9z"/>
<path d="M7698 771 c4 -61 2 -70 -14 -74 -11 -3 -1 -5 21 -5 22 0 34 2 28 5
-9 3 -13 28 -13 74 0 49 -4 69 -13 69 -9 0 -12 -18 -9 -69z"/>
<path d="M7778 828 c16 -16 16 -125 0 -131 -7 -3 5 -5 27 -5 22 0 32 2 23 5
-15 4 -18 16 -18 62 0 54 -11 81 -34 81 -6 0 -5 -5 2 -12z"/>
<path d="M8008 771 c4 -61 2 -70 -14 -74 -11 -3 -1 -5 21 -5 22 0 34 2 28 5
-9 3 -13 28 -13 74 0 49 -4 69 -13 69 -9 0 -12 -18 -9 -69z"/>
<path d="M8138 833 c7 -3 16 -2 19 1 4 3 -2 6 -13 5 -11 0 -14 -3 -6 -6z"/>
<path d="M8348 828 c7 -7 12 -38 12 -69 0 -46 -3 -58 -17 -62 -10 -3 2 -5 27
-5 25 0 37 2 28 5 -14 3 -18 15 -18 51 0 63 -9 92 -28 92 -12 0 -13 -3 -4 -12z"/>
<path d="M8420 826 c0 -9 5 -16 10 -16 6 0 10 4 10 9 0 6 -4 13 -10 16 -5 3
-10 -1 -10 -9z"/>
<path d="M8555 816 c9 -14 14 -30 10 -36 -3 -5 1 -10 10 -10 12 0 15 5 11 16
-3 9 -6 20 -6 24 0 5 -9 14 -21 20 -20 11 -20 11 -4 -14z"/>
<path d="M8668 833 c7 -3 16 -2 19 1 4 3 -2 6 -13 5 -11 0 -14 -3 -6 -6z"/>
<path d="M8714 832 c-6 -4 -10 -24 -10 -44 0 -48 19 -33 21 17 0 19 1 35 0 35
0 0 -5 -4 -11 -8z"/>
<path d="M8745 830 c-3 -5 -1 -10 4 -10 6 0 11 5 11 10 0 6 -2 10 -4 10 -3 0
-8 -4 -11 -10z"/>
<path d="M8808 771 c4 -61 2 -70 -14 -74 -11 -3 -1 -5 21 -5 22 0 34 2 28 5
-9 3 -13 28 -13 74 0 49 -4 69 -13 69 -9 0 -12 -18 -9 -69z"/>
<path d="M9068 771 c4 -61 2 -70 -14 -74 -11 -3 -1 -5 21 -5 22 0 34 2 28 5
-9 3 -13 28 -13 74 0 49 -4 69 -13 69 -9 0 -12 -18 -9 -69z"/>
<path d="M9148 828 c16 -16 16 -125 0 -131 -7 -3 5 -5 27 -5 22 0 32 2 23 5
-15 4 -18 16 -18 62 0 54 -11 81 -34 81 -6 0 -5 -5 2 -12z"/>
<path d="M496 798 c-23 -54 14 -117 62 -105 12 3 11 5 -5 6 -26 1 -43 28 -43
66 0 14 5 35 10 46 8 13 7 19 0 19 -6 0 -17 -14 -24 -32z"/>
<path d="M646 808 c-9 -12 -16 -33 -16 -46 0 -30 43 -72 72 -71 20 1 21 2 3 6
-39 10 -47 25 -43 80 3 29 3 53 2 53 -2 0 -10 -10 -18 -22z"/>
<path d="M738 820 c15 -17 16 -74 2 -100 -8 -16 -7 -18 4 -14 20 8 35 54 26
79 -4 12 -16 27 -26 35 -16 12 -17 12 -6 0z"/>
<path d="M1086 808 c-9 -12 -16 -33 -16 -46 0 -30 43 -72 72 -71 20 1 21 2 3
6 -39 10 -47 25 -43 80 3 29 3 53 2 53 -2 0 -10 -10 -18 -22z"/>
<path d="M1338 818 c-12 -29 2 -47 43 -58 37 -10 43 -17 40 -50 0 -8 4 -5 11
8 14 28 -9 57 -52 65 -20 4 -30 13 -32 29 -3 20 -4 20 -10 6z"/>
<path d="M1966 808 c-9 -12 -16 -33 -16 -46 0 -30 43 -72 72 -71 20 1 21 2 3
6 -39 10 -47 25 -43 80 3 29 3 53 2 53 -2 0 -10 -10 -18 -22z"/>
<path d="M2413 822 c-24 -15 -32 -56 -17 -90 7 -18 19 -32 26 -32 9 0 9 3 0
12 -15 15 -16 72 -2 99 12 21 11 22 -7 11z"/>
<path d="M2668 773 c4 -58 15 -84 36 -82 7 0 6 2 -1 6 -8 3 -13 24 -13 53 0
27 -3 55 -6 64 -12 32 -19 15 -16 -41z"/>
<path d="M2958 773 c4 -58 15 -84 36 -82 7 0 6 2 -1 6 -8 3 -13 24 -13 53 0
27 -3 55 -6 64 -12 32 -19 15 -16 -41z"/>
<path d="M3256 808 c-9 -12 -16 -33 -16 -46 0 -30 43 -72 72 -71 20 1 21 2 3
6 -39 10 -47 25 -43 80 3 29 3 53 2 53 -2 0 -10 -10 -18 -22z"/>
<path d="M3348 820 c15 -17 16 -74 2 -100 -8 -16 -7 -18 4 -14 20 8 35 54 26
79 -4 12 -16 27 -26 35 -16 12 -17 12 -6 0z"/>
<path d="M4028 773 c4 -58 15 -84 36 -82 7 0 6 2 -1 6 -8 3 -13 24 -13 53 0
27 -3 55 -6 64 -12 32 -19 15 -16 -41z"/>
<path d="M4206 808 c-9 -12 -16 -33 -16 -46 0 -30 43 -72 72 -71 20 1 21 2 3
6 -39 10 -47 25 -43 80 3 29 3 53 2 53 -2 0 -10 -10 -18 -22z"/>
<path d="M4348 818 c-12 -29 2 -47 43 -58 37 -10 43 -17 40 -50 0 -8 4 -5 11
8 14 28 -9 57 -52 65 -20 4 -30 13 -32 29 -3 20 -4 20 -10 6z"/>
<path d="M4826 808 c-9 -12 -16 -33 -16 -46 0 -30 43 -72 72 -71 20 1 21 2 3
6 -39 10 -47 25 -43 80 3 29 3 53 2 53 -2 0 -10 -10 -18 -22z"/>
<path d="M4918 820 c15 -17 16 -74 2 -100 -8 -16 -7 -18 4 -14 20 8 35 54 26
79 -4 12 -16 27 -26 35 -16 12 -17 12 -6 0z"/>
<path d="M5696 808 c-9 -12 -16 -33 -16 -46 0 -30 43 -72 72 -71 20 1 21 2 3
6 -39 10 -47 25 -43 80 3 29 3 53 2 53 -2 0 -10 -10 -18 -22z"/>
<path d="M5956 798 c-23 -54 14 -117 62 -105 12 3 11 5 -5 6 -26 1 -43 28 -43
66 0 14 5 35 10 46 8 13 7 19 0 19 -6 0 -17 -14 -24 -32z"/>
<path d="M6106 808 c-9 -12 -16 -33 -16 -46 0 -30 43 -72 72 -71 20 1 21 2 3
6 -39 10 -47 25 -43 80 3 29 3 53 2 53 -2 0 -10 -10 -18 -22z"/>
<path d="M6768 773 c4 -58 15 -84 36 -82 7 0 6 2 -1 6 -8 3 -13 24 -13 53 0
27 -3 55 -6 64 -12 32 -19 15 -16 -41z"/>
<path d="M7608 773 c4 -58 15 -84 36 -82 7 0 6 2 -1 6 -8 3 -13 24 -13 53 0
27 -3 55 -6 64 -12 32 -19 15 -16 -41z"/>
<path d="M8086 798 c-23 -54 14 -117 62 -105 12 3 11 5 -5 6 -26 1 -43 28 -43
66 0 14 5 35 10 46 8 13 7 19 0 19 -6 0 -17 -14 -24 -32z"/>
<path d="M8476 808 c-9 -12 -16 -33 -16 -46 0 -30 43 -72 72 -71 20 1 21 2 3
6 -39 10 -47 25 -43 80 3 29 3 53 2 53 -2 0 -10 -10 -18 -22z"/>
<path d="M8630 810 c-8 -14 -8 -26 0 -40 6 -11 12 -20 13 -20 1 0 2 18 2 40 0
22 -1 40 -2 40 -1 0 -7 -9 -13 -20z"/>
<path d="M8886 808 c-9 -12 -16 -33 -16 -46 0 -30 43 -72 72 -71 20 1 21 2 3
6 -39 10 -47 25 -43 80 3 29 3 53 2 53 -2 0 -10 -10 -18 -22z"/>
<path d="M8978 820 c15 -17 16 -74 2 -100 -8 -16 -7 -18 4 -14 20 8 35 54 26
79 -4 12 -16 27 -26 35 -16 12 -17 12 -6 0z"/>
<path d="M580 805 c0 -8 5 -15 10 -15 6 0 10 7 10 15 0 8 -4 15 -10 15 -5 0
-10 -7 -10 -15z"/>
<path d="M2590 805 c0 -8 5 -15 10 -15 6 0 10 7 10 15 0 8 -4 15 -10 15 -5 0
-10 -7 -10 -15z"/>
<path d="M2880 805 c0 -8 5 -15 10 -15 6 0 10 7 10 15 0 8 -4 15 -10 15 -5 0
-10 -7 -10 -15z"/>
<path d="M3950 805 c0 -8 5 -15 10 -15 6 0 10 7 10 15 0 8 -4 15 -10 15 -5 0
-10 -7 -10 -15z"/>
<path d="M6040 805 c0 -8 5 -15 10 -15 6 0 10 7 10 15 0 8 -4 15 -10 15 -5 0
-10 -7 -10 -15z"/>
<path d="M6690 805 c0 -8 5 -15 10 -15 6 0 10 7 10 15 0 8 -4 15 -10 15 -5 0
-10 -7 -10 -15z"/>
<path d="M7530 805 c0 -8 5 -15 10 -15 6 0 10 7 10 15 0 8 -4 15 -10 15 -5 0
-10 -7 -10 -15z"/>
<path d="M8170 805 c0 -8 5 -15 10 -15 6 0 10 7 10 15 0 8 -4 15 -10 15 -5 0
-10 -7 -10 -15z"/>
<path d="M2598 759 c-20 -11 -24 -44 -8 -54 6 -3 10 5 10 19 0 14 8 30 18 35
9 6 13 10 7 10 -5 0 -18 -4 -27 -10z"/>
<path d="M2888 759 c-20 -11 -24 -44 -8 -54 6 -3 10 5 10 19 0 14 8 30 18 35
9 6 13 10 7 10 -5 0 -18 -4 -27 -10z"/>
<path d="M3958 759 c-20 -11 -24 -44 -8 -54 6 -3 10 5 10 19 0 14 8 30 18 35
9 6 13 10 7 10 -5 0 -18 -4 -27 -10z"/>
<path d="M6698 759 c-20 -11 -24 -44 -8 -54 6 -3 10 5 10 19 0 14 8 30 18 35
9 6 13 10 7 10 -5 0 -18 -4 -27 -10z"/>
<path d="M7538 759 c-20 -11 -24 -44 -8 -54 6 -3 10 5 10 19 0 14 8 30 18 35
9 6 13 10 7 10 -5 0 -18 -4 -27 -10z"/>
<path d="M2822 730 c0 -14 2 -19 5 -12 2 6 2 18 0 25 -3 6 -5 1 -5 -13z"/>
<path d="M5462 730 c0 -14 2 -19 5 -12 2 6 2 18 0 25 -3 6 -5 1 -5 -13z"/>
<path d="M6502 730 c0 -14 2 -19 5 -12 2 6 2 18 0 25 -3 6 -5 1 -5 -13z"/>
<path d="M7382 730 c0 -14 2 -19 5 -12 2 6 2 18 0 25 -3 6 -5 1 -5 -13z"/>
<path d="M7942 730 c0 -14 2 -19 5 -12 2 6 2 18 0 25 -3 6 -5 1 -5 -13z"/>
<path d="M8668 743 c7 -3 16 -2 19 1 4 3 -2 6 -13 5 -11 0 -14 -3 -6 -6z"/>
<path d="M1330 722 c0 -14 6 -22 16 -22 14 0 15 3 3 18 -7 9 -15 19 -16 21 -2
2 -3 -5 -3 -17z"/>
<path d="M4340 722 c0 -14 6 -22 16 -22 14 0 15 3 3 18 -7 9 -15 19 -16 21 -2
2 -3 -5 -3 -17z"/>
<path d="M7081 727 c0 -10 -11 -22 -23 -27 -20 -7 -17 -9 17 -9 22 0 35 3 29
7 -7 4 -14 16 -17 27 -4 17 -5 17 -6 2z"/>
<path d="M8634 713 c2 -13 1 -23 -4 -23 -14 0 -19 -28 -6 -39 9 -8 12 -5 12
12 -1 20 4 22 49 22 45 0 50 -2 49 -22 0 -12 3 -20 8 -17 15 10 8 43 -11 54
-11 5 -35 10 -55 10 -19 0 -37 6 -40 13 -4 6 -4 2 -2 -10z"/>
<path d="M2100 651 c0 -6 5 -13 10 -16 6 -3 10 1 10 9 0 9 -4 16 -10 16 -5 0
-10 -4 -10 -9z"/>
<path d="M8673 633 c9 -2 23 -2 30 0 6 3 -1 5 -18 5 -16 0 -22 -2 -12 -5z"/>
<path d="M1671 489 c-13 -38 -14 -49 -2 -31 6 10 13 2 25 -27 9 -23 16 -46 16
-51 0 -15 -70 -12 -71 3 0 6 -5 1 -10 -12 -5 -13 -7 -26 -4 -29 3 -3 5 0 5 6
0 7 17 12 44 12 40 0 45 -3 54 -30 9 -24 8 -31 -6 -40 -13 -7 -5 -9 33 -9 37
0 45 2 29 9 -15 6 -30 38 -58 119 -21 61 -40 111 -41 111 -2 0 -8 -14 -14 -31z"/>
<path d="M422 501 c4 -13 18 -16 19 -4 0 4 -5 9 -11 12 -7 2 -11 -2 -8 -8z"/>
<path d="M718 401 c3 -99 2 -110 -15 -114 -10 -3 0 -5 22 -5 22 0 34 2 28 5
-9 3 -13 36 -13 114 0 80 -3 109 -12 109 -10 0 -12 -27 -10 -109z"/>
<path d="M1148 503 c21 -4 22 -9 22 -86 0 -59 5 -89 16 -105 22 -31 36 -27 18
6 -8 16 -14 56 -14 100 0 66 2 73 23 82 17 7 9 9 -33 8 -30 0 -45 -3 -32 -5z"/>
<path d="M1290 503 c8 -3 17 -9 20 -13 3 -3 16 0 30 7 24 12 23 13 -20 12 -25
0 -38 -3 -30 -6z"/>
<path d="M1410 490 c-39 -39 -19 -85 46 -101 72 -18 85 -79 21 -98 -23 -7 -26
-9 -11 -10 33 -1 67 31 67 63 0 35 -17 51 -67 68 -66 22 -75 73 -15 89 24 7
24 7 2 8 -13 1 -32 -8 -43 -19z"/>
<path d="M1956 503 c-11 -11 -6 -23 9 -23 8 0 15 4 15 9 0 13 -16 22 -24 14z"/>
<path d="M2380 501 c29 -8 46 -47 36 -84 -3 -15 -26 -49 -51 -77 -25 -28 -45
-53 -45 -55 0 -3 27 -5 60 -5 42 0 60 4 60 13 0 8 -14 11 -45 9 -25 -2 -45 -1
-45 4 0 4 23 31 50 60 28 29 50 62 50 74 0 28 -44 70 -72 69 -22 -1 -22 -1 2
-8z"/>
<path d="M2840 490 c-27 -27 -27 -90 -1 -114 19 -18 19 -17 9 18 -15 49 0 98
32 107 24 7 24 7 3 8 -13 1 -32 -8 -43 -19z"/>
<path d="M378 494 c-5 -4 -8 -20 -8 -35 0 -18 -6 -29 -17 -32 -17 -4 -17 -5 0
-6 14 -1 17 -11 17 -65 0 -53 -3 -65 -17 -69 -10 -3 2 -5 27 -5 25 0 37 2 28
5 -15 4 -18 16 -18 68 0 58 2 64 23 68 22 4 22 4 0 6 -17 1 -22 8 -25 37 -2
20 -6 32 -10 28z"/>
<path d="M1506 492 c-2 -4 2 -18 10 -32 l13 -25 1 33 c0 29 -12 43 -24 24z"/>
<path d="M2506 478 c-25 -35 -22 -139 5 -169 19 -23 20 -23 10 -2 -14 28 -14
148 -1 174 14 26 5 24 -14 -3z"/>
<path d="M2589 477 c14 -36 14 -127 1 -164 l-10 -28 21 25 c18 21 20 35 17 92
-3 48 -9 73 -21 85 -17 17 -18 17 -8 -10z"/>
<path d="M2676 478 c-25 -35 -22 -139 5 -169 19 -23 20 -23 10 -2 -14 28 -14
148 -1 174 14 26 5 24 -14 -3z"/>
<path d="M2759 477 c14 -36 14 -127 1 -164 l-10 -28 21 25 c18 21 20 35 17 92
-3 48 -9 73 -21 85 -17 17 -18 17 -8 -10z"/>
<path d="M2918 416 c3 -52 -1 -92 -8 -107 l-12 -24 21 21 c36 34 40 134 8 177
-10 14 -11 2 -9 -67z"/>
<path d="M601 468 c0 -9 -11 -24 -23 -32 -18 -13 -19 -16 -5 -16 14 0 17 -10
17 -59 0 -60 15 -88 42 -78 8 4 7 6 -4 6 -15 1 -18 11 -18 65 0 59 2 65 23 69
22 4 22 4 0 6 -16 1 -23 9 -26 29 -2 15 -5 19 -6 10z"/>
<path d="M2320 451 c0 -12 6 -21 15 -21 8 0 15 4 15 9 0 5 -7 14 -15 21 -13
10 -15 9 -15 -9z"/>
<path d="M798 418 c16 -16 16 -125 0 -131 -7 -3 5 -5 27 -5 22 0 32 2 23 5
-15 4 -18 16 -18 62 0 54 -11 81 -34 81 -6 0 -5 -5 2 -12z"/>
<path d="M965 406 c9 -14 14 -30 10 -36 -3 -5 1 -10 10 -10 12 0 15 5 11 16
-3 9 -6 20 -6 24 0 5 -9 14 -21 20 -20 11 -20 11 -4 -14z"/>
<path d="M1958 361 c4 -61 2 -70 -14 -74 -11 -3 -1 -5 21 -5 22 0 34 2 28 5
-9 3 -13 28 -13 74 0 49 -4 69 -13 69 -9 0 -12 -18 -9 -69z"/>
<path d="M2048 361 c4 -61 2 -70 -14 -74 -11 -3 -1 -5 21 -5 22 0 34 2 28 5
-9 3 -13 28 -13 74 0 49 -4 69 -13 69 -9 0 -12 -18 -9 -69z"/>
<path d="M2128 418 c16 -16 16 -125 0 -131 -7 -3 5 -5 27 -5 22 0 32 2 23 5
-15 4 -18 16 -18 62 0 54 -11 81 -34 81 -6 0 -5 -5 2 -12z"/>
<path d="M196 398 c-9 -12 -16 -33 -16 -46 0 -30 43 -72 72 -71 20 1 21 2 3 6
-39 10 -47 25 -43 80 3 29 3 53 2 53 -2 0 -10 -10 -18 -22z"/>
<path d="M288 410 c15 -17 16 -74 2 -100 -8 -16 -7 -18 4 -14 20 8 35 54 26
79 -4 12 -16 27 -26 35 -16 12 -17 12 -6 0z"/>
<path d="M886 398 c-9 -12 -16 -33 -16 -46 0 -30 43 -72 72 -71 20 1 21 2 3 6
-39 10 -47 25 -43 80 3 29 3 53 2 53 -2 0 -10 -10 -18 -22z"/>
<path d="M652 320 c0 -14 2 -19 5 -12 2 6 2 18 0 25 -3 6 -5 1 -5 -13z"/>
<path d="M1390 319 c0 -18 5 -25 20 -25 18 0 18 1 2 21 -9 11 -18 22 -19 24
-2 2 -3 -7 -3 -20z"/>
<path d="M1611 317 c0 -10 -11 -22 -23 -27 -20 -7 -17 -9 17 -9 22 0 35 3 29
7 -7 4 -14 16 -17 27 -4 17 -5 17 -6 2z"/>
<path d="M1289 303 c-13 -16 -12 -17 4 -4 16 13 21 21 13 21 -2 0 -10 -8 -17
-17z"/>
<path d="M2830 305 c0 -15 46 -32 57 -21 4 3 -3 6 -15 6 -13 0 -22 6 -22 15 0
8 -4 15 -10 15 -5 0 -10 -7 -10 -15z"/>
<path d="M3002 299 c2 -6 8 -10 13 -10 5 0 11 4 13 10 2 6 -4 11 -13 11 -9 0
-15 -5 -13 -11z"/>
<path d="M1238 283 c6 -2 18 -2 25 0 6 3 1 5 -13 5 -14 0 -19 -2 -12 -5z"/>
</g>
</svg>
