<?xml version="1.0" standalone="no"?>
<!DOCTYPE svg PUBLIC "-//W3C//DTD SVG 20010904//EN"
 "http://www.w3.org/TR/2001/REC-SVG-20010904/DTD/svg10.dtd">
<svg version="1.0" xmlns="http://www.w3.org/2000/svg"
 width="659.000000pt" height="495.000000pt" viewBox="0 0 659.000000 495.000000"
 preserveAspectRatio="xMidYMid meet">

<g transform="translate(0.000000,495.000000) scale(0.100000,-0.100000)"
fill="#000000" stroke="none">
<path d="M3357 4063 c-4 -3 -7 -71 -7 -150 0 -136 1 -143 20 -143 18 0 20 7
21 85 2 196 1 215 -14 215 -8 0 -17 -3 -20 -7z"/>
<path d="M3889 4013 c0 -32 -3 -52 -6 -45 -8 21 -77 15 -99 -9 -27 -30 -27
-155 1 -175 26 -19 74 -18 97 3 17 15 18 15 18 0 0 -10 7 -17 15 -17 13 0 15
23 15 150 0 143 -1 150 -20 150 -18 0 -20 -7 -21 -57z m-15 -79 c21 -21 21
-97 0 -119 -39 -38 -92 14 -79 75 12 55 49 75 79 44z"/>
<path d="M3463 4053 c-7 -3 -13 -14 -13 -25 0 -14 6 -19 22 -16 13 2 24 10 26
19 3 18 -15 29 -35 22z"/>
<path d="M2712 3998 c-12 -29 -22 -60 -22 -68 0 -8 -11 -42 -25 -75 -30 -73
-31 -85 -6 -85 21 0 31 19 31 56 0 23 3 24 56 24 l56 0 15 -40 c11 -27 22 -40
35 -40 25 0 23 10 -16 115 -19 49 -38 106 -43 125 -7 27 -14 36 -34 38 -22 3
-28 -4 -47 -50z m82 -96 c7 -21 4 -22 -38 -22 -25 0 -46 2 -46 4 0 4 26 81 36
106 6 14 30 -29 48 -88z"/>
<path d="M2912 3838 c2 -89 7 -142 13 -141 6 2 11 20 13 42 l3 39 51 -2 c43
-1 53 3 70 25 27 36 28 111 1 147 -24 32 -65 40 -99 17 -21 -14 -24 -14 -24 0
0 8 -7 15 -15 15 -13 0 -15 -20 -13 -142z m110 95 c23 -21 24 -89 1 -115 -21
-23 -32 -23 -60 4 -33 30 -31 80 3 107 32 25 33 25 56 4z"/>
<path d="M3137 3973 c-4 -3 -7 -66 -7 -140 0 -126 1 -133 20 -133 17 0 20 7
20 45 0 43 1 45 20 35 61 -33 121 13 122 94 2 83 -59 130 -118 91 -21 -14 -24
-14 -24 0 0 15 -21 21 -33 8z m115 -40 c23 -21 24 -89 1 -115 -21 -23 -32 -23
-60 4 -33 30 -31 80 3 107 32 25 33 25 56 4z"/>
<path d="M3457 3973 c-4 -3 -7 -51 -7 -105 0 -90 2 -98 19 -98 25 0 27 12 23
121 -2 63 -7 89 -16 89 -7 0 -16 -3 -19 -7z"/>
<path d="M3579 3961 c-19 -15 -23 -28 -23 -83 -1 -90 16 -110 93 -106 43 2 57
7 59 20 3 15 -3 16 -45 11 -52 -6 -64 1 -77 45 -7 21 -5 22 63 22 l71 0 0 30
c0 67 -87 105 -141 61z m91 -18 c0 -5 3 -18 6 -30 6 -22 3 -23 -45 -23 -44 0
-50 2 -44 18 11 31 25 42 54 42 16 0 29 -3 29 -7z"/>
<path d="M3240 3585 c-15 -18 -5 -35 21 -35 12 0 19 7 19 19 0 24 -25 34 -40
16z"/>
<path d="M3660 3585 c-14 -16 -5 -35 16 -35 15 0 20 35 5 44 -5 3 -14 -1 -21
-9z"/>
<path d="M2560 3561 c-34 -49 -8 -102 62 -126 41 -13 54 -49 28 -75 -21 -21
-65 -27 -75 -10 -8 13 -45 13 -45 0 0 -26 66 -39 127 -26 27 6 32 13 38 46 8
50 -2 67 -61 101 -35 19 -50 34 -52 52 -4 29 20 39 74 30 26 -4 34 -2 34 10 0
19 -21 27 -70 27 -31 0 -43 -6 -60 -29z"/>
<path d="M2767 3564 c-4 -4 -7 -16 -7 -26 0 -10 -7 -18 -15 -18 -8 0 -15 -7
-15 -15 0 -8 7 -15 15 -15 12 0 15 -14 15 -67 0 -38 4 -73 8 -79 12 -18 44
-32 63 -27 28 8 23 23 -6 23 -24 0 -25 2 -25 75 0 41 3 74 8 74 24 -4 42 3 42
16 0 9 -9 15 -24 15 -18 0 -26 6 -28 22 -3 22 -19 33 -31 22z"/>
<path d="M3116 3563 c-3 -3 -6 -15 -6 -25 0 -10 -7 -18 -15 -18 -8 0 -15 -7
-15 -15 0 -8 7 -15 15 -15 12 0 15 -14 15 -66 0 -84 11 -104 55 -104 23 0 35
5 35 14 0 9 -8 12 -25 9 -29 -6 -38 18 -33 93 l3 49 45 0 45 0 3 -82 c3 -75 5
-83 23 -83 19 0 20 6 17 98 l-3 97 -67 3 c-59 3 -68 5 -68 22 0 20 -13 33 -24
23z"/>
<path d="M3527 3564 c-4 -4 -7 -16 -7 -26 0 -10 -7 -18 -15 -18 -8 0 -15 -7
-15 -15 0 -8 7 -15 15 -15 12 0 15 -13 15 -57 0 -32 3 -68 6 -79 10 -38 84
-55 84 -19 0 8 -9 10 -25 7 -25 -4 -25 -4 -25 72 l0 77 48 -3 47 -3 3 -82 c2
-66 6 -83 18 -83 12 0 14 16 12 98 l-3 97 -62 3 c-54 3 -62 6 -65 24 -3 22
-19 33 -31 22z"/>
<path d="M2912 3508 c-25 -25 -14 -36 27 -25 30 8 43 8 55 -2 28 -23 19 -41
-19 -41 -43 0 -85 -37 -85 -73 0 -32 20 -48 59 -47 17 0 45 0 61 0 l30 1 0 77
c0 99 -14 122 -74 122 -23 0 -47 -5 -54 -12z m98 -121 c0 -31 -18 -47 -51 -47
-20 0 -30 6 -35 22 -8 27 17 48 58 48 23 0 28 -4 28 -23z"/>
<path d="M3354 3513 c-17 -12 -24 -54 -13 -75 6 -11 26 -26 45 -34 27 -12 35
-20 32 -37 -4 -26 -50 -36 -75 -16 -13 11 -15 11 -12 -6 8 -42 118 -35 120 8
2 27 -2 61 -6 65 -2 2 -21 10 -42 17 -25 9 -38 19 -38 32 0 15 8 18 43 17 34
-1 42 2 40 15 -3 17 -74 27 -94 14z"/>
<path d="M3784 3513 c-37 -26 -54 -110 -32 -157 18 -40 95 -53 126 -22 22 22
11 28 -25 14 -38 -14 -61 -6 -74 29 -26 68 20 130 77 104 23 -10 25 -9 22 11
-2 19 -10 23 -43 26 -22 1 -45 -1 -51 -5z"/>
<path d="M3940 3500 c-11 -11 -20 -26 -20 -33 0 -15 34 -49 68 -66 26 -14 29
-49 6 -58 -10 -3 -30 -1 -46 5 -25 9 -29 8 -26 -5 4 -23 53 -34 89 -21 62 21
54 86 -13 113 -28 11 -38 20 -36 33 3 13 13 17 46 15 43 -2 51 4 30 25 -19 19
-76 14 -98 -8z"/>
<path d="M2342 2835 c-12 -25 -18 -45 -13 -45 6 0 13 10 17 23 7 20 9 19 14
-11 l5 -34 28 22 c15 12 26 25 23 28 -3 3 -15 -3 -26 -13 -21 -19 -21 -19 -14
22 9 57 -8 61 -34 8z"/>
<path d="M4170 2848 c0 -15 43 -78 53 -77 8 0 8 2 0 6 -7 2 -13 11 -13 18 0
13 -39 66 -40 53z"/>
<path d="M2425 2830 c-3 -5 -3 -10 1 -10 3 0 -1 -12 -10 -26 -10 -14 -16 -30
-14 -36 5 -13 48 52 48 71 0 14 -17 15 -25 1z"/>
<path d="M2447 2775 c-16 -23 -16 -24 5 -39 21 -15 23 -14 35 7 16 30 16 35
-4 46 -14 7 -22 3 -36 -14z m23 -25 c0 -5 -2 -10 -4 -10 -3 0 -8 5 -11 10 -3
6 -1 10 4 10 6 0 11 -4 11 -10z"/>
<path d="M4134 2788 c-5 -8 -2 -9 11 -4 15 5 16 4 5 -9 -15 -18 -7 -45 13 -45
8 0 20 7 27 15 10 13 10 19 -5 35 -20 23 -40 26 -51 8z m46 -28 c0 -5 -7 -10
-16 -10 -8 0 -12 5 -9 10 3 6 10 10 16 10 5 0 9 -4 9 -10z"/>
<path d="M2584 2753 c-3 -10 -12 -31 -20 -47 -8 -16 -12 -31 -8 -35 4 -3 9 -1
11 5 2 6 10 20 18 30 14 18 14 18 15 -1 0 -12 -5 -26 -12 -33 -7 -7 -8 -12 -2
-12 31 0 46 56 19 66 -10 4 -13 13 -10 25 4 11 4 19 0 19 -3 0 -8 -8 -11 -17z"/>
<path d="M2506 2744 c-13 -33 -7 -54 16 -54 21 0 21 0 3 14 -17 12 -17 16 -6
30 9 10 21 14 34 10 13 -4 17 -2 13 5 -11 17 -53 13 -60 -5z"/>
<path d="M4074 2747 c-9 -9 -8 -20 4 -42 9 -17 17 -25 20 -17 2 7 -1 18 -6 25
-6 7 -7 18 -3 25 6 10 13 6 25 -13 10 -15 20 -24 23 -21 9 8 -26 56 -40 56 -6
-1 -17 -6 -23 -13z"/>
<path d="M2266 2696 c-20 -32 -21 -62 0 -70 26 -10 30 -6 9 9 -19 15 -19 16
-1 46 22 37 15 50 -8 15z"/>
<path d="M4017 2708 c-23 -12 -22 -45 2 -57 26 -14 56 9 47 36 -8 26 -27 34
-49 21z m32 -22 c14 -17 0 -29 -23 -20 -17 7 -20 16 -9 27 10 11 19 8 32 -7z"/>
<path d="M2627 2670 c-22 -36 -6 -41 17 -5 18 27 20 35 8 35 -4 0 -16 -13 -25
-30z"/>
<path d="M3955 2690 c-3 -5 -1 -10 4 -10 6 0 11 5 11 10 0 6 -2 10 -4 10 -3 0
-8 -4 -11 -10z"/>
<path d="M2664 2665 c-9 -14 -14 -28 -11 -31 3 -3 10 4 17 15 16 32 30 25 24
-11 l-5 -33 15 25 c20 33 20 37 -4 50 -16 9 -22 6 -36 -15z"/>
<path d="M2312 2658 c-23 -23 -7 -68 25 -68 7 0 13 5 13 10 0 6 -7 10 -15 10
-8 0 -15 7 -15 15 0 13 4 14 20 5 25 -13 26 -2 3 17 -17 14 -17 14 0 9 9 -3
17 -1 17 4 0 14 -34 12 -48 -2z"/>
<path d="M3920 2654 c0 -15 55 -66 63 -58 3 4 -4 15 -16 25 -17 13 -19 20 -10
29 13 14 33 5 33 -16 0 -8 4 -14 10 -14 6 0 5 10 -2 25 -9 20 -17 24 -45 22
-18 -1 -33 -7 -33 -13z"/>
<path d="M3880 2650 c0 -6 -5 -8 -12 -4 -8 5 -9 2 -5 -10 4 -10 1 -24 -8 -32
-20 -20 -19 -37 3 -50 14 -9 22 -9 35 1 17 12 17 14 0 44 -15 26 -16 33 -4 40
9 6 10 11 2 15 -6 4 -11 2 -11 -4z m8 -78 c2 -7 -3 -12 -12 -12 -9 0 -16 7
-16 16 0 17 22 14 28 -4z"/>
<path d="M2732 2638 c-18 -18 -15 -46 7 -58 25 -13 31 -13 31 0 0 6 -7 10 -15
10 -8 0 -15 5 -15 11 0 7 10 9 26 5 22 -6 25 -4 22 16 -3 26 -36 36 -56 16z
m43 -8 c3 -5 2 -10 -4 -10 -5 0 -13 5 -16 10 -3 6 -2 10 4 10 5 0 13 -4 16
-10z"/>
<path d="M2380 2630 c0 -5 7 -10 15 -10 8 0 15 -4 15 -10 0 -5 -10 -9 -22 -7
-32 3 -32 -37 -1 -41 32 -5 53 46 27 65 -21 16 -34 17 -34 3z m20 -50 c0 -5
-4 -10 -9 -10 -6 0 -13 5 -16 10 -3 6 1 10 9 10 9 0 16 -4 16 -10z"/>
<path d="M3900 2624 c0 -17 37 -60 45 -53 3 4 -5 20 -19 35 -14 16 -26 24 -26
18z"/>
<path d="M4146 2618 c22 -39 47 -68 57 -68 8 0 8 3 -1 12 -15 15 -16 48 -2 48
6 0 10 -6 10 -14 0 -7 7 -19 15 -26 21 -17 19 -1 -4 33 -17 26 -19 27 -35 12
-14 -15 -17 -15 -22 -1 -3 9 -10 16 -16 16 -5 0 -6 -6 -2 -12z"/>
<path d="M2438 2580 c-20 -34 -13 -38 20 -10 13 11 21 24 17 30 -10 16 -19 12
-37 -20z"/>
<path d="M2481 2567 c-6 -6 -11 -20 -10 -31 0 -20 1 -20 11 2 11 22 38 31 38
11 0 -6 -5 -19 -10 -30 -7 -12 -7 -19 -1 -19 14 0 34 39 28 54 -7 18 -43 26
-56 13z"/>
<path d="M4115 2570 c-9 -15 4 -47 22 -54 16 -7 43 10 43 26 0 6 -6 5 -15 -2
-8 -6 -19 -9 -25 -5 -14 9 -13 32 3 38 7 3 6 6 -5 6 -9 1 -20 -4 -23 -9z"/>
<path d="M3781 2561 c-9 -6 -10 -11 -2 -15 6 -4 11 -2 11 3 0 6 7 11 17 11 15
0 15 -2 -1 -19 -31 -34 0 -55 37 -26 18 13 18 14 -2 34 -23 23 -38 26 -60 12z
m49 -31 c0 -5 -4 -10 -10 -10 -5 0 -10 5 -10 10 0 6 5 10 10 10 6 0 10 -4 10
-10z"/>
<path d="M4080 2545 c-10 -12 -9 -20 4 -40 21 -32 28 -32 16 0 -5 14 -7 32 -4
40 8 19 0 19 -16 0z"/>
<path d="M2556 2521 c-18 -34 -19 -41 -8 -41 10 0 36 60 29 67 -3 2 -13 -9
-21 -26z"/>
<path d="M2581 2507 c-15 -41 -13 -47 5 -14 25 45 52 32 28 -14 -8 -17 -10
-29 -4 -29 5 0 10 -7 10 -15 0 -22 47 -42 62 -27 8 8 8 15 -2 27 -10 12 -10
15 3 15 23 0 27 25 6 38 -16 10 -21 8 -35 -13 -21 -32 -37 -33 -22 -1 13 31 6
52 -21 59 -15 4 -22 -2 -30 -26z m109 -37 c0 -5 -4 -10 -10 -10 -5 0 -10 5
-10 10 0 6 5 10 10 10 6 0 10 -4 10 -10z m-25 -40 c3 -5 -1 -10 -9 -10 -9 0
-16 5 -16 10 0 6 4 10 9 10 6 0 13 -4 16 -10z"/>
<path d="M3750 2525 c-10 -12 -9 -20 4 -40 21 -32 28 -32 16 0 -5 14 -7 32 -4
40 8 19 0 19 -16 0z"/>
<path d="M3674 2508 c-10 -12 -14 -18 -7 -15 7 4 20 -5 33 -23 12 -16 26 -30
31 -30 6 0 1 13 -10 29 -24 33 -26 47 -8 54 8 4 6 6 -4 6 -9 1 -24 -9 -35 -21z"/>
<path d="M4010 2495 c-8 -9 -9 -15 -2 -15 6 0 14 5 17 10 4 6 11 8 16 4 6 -4
4 -13 -7 -25 -14 -16 -14 -19 -2 -24 8 -3 24 -2 37 3 l22 8 -21 27 c-24 30
-42 34 -60 12z m50 -35 c0 -5 -4 -10 -10 -10 -5 0 -10 5 -10 10 0 6 5 10 10
10 6 0 10 -4 10 -10z"/>
<path d="M3960 2455 c-19 -23 15 -59 41 -44 11 5 19 15 19 21 0 9 -3 9 -12 0
-19 -19 -30 -14 -18 7 5 11 10 22 10 25 0 12 -28 5 -40 -9z m30 1 c0 -3 -4 -8
-10 -11 -5 -3 -10 -1 -10 4 0 6 5 11 10 11 6 0 10 -2 10 -4z"/>
<path d="M3911 2436 c-16 -19 -6 -36 22 -36 22 -1 22 -1 3 -15 -16 -12 -17
-15 -4 -15 20 0 42 26 33 40 -3 5 -18 10 -33 10 -21 0 -23 3 -12 10 8 5 12 12
9 15 -4 3 -12 -1 -18 -9z"/>
<path d="M3857 2393 c-13 -12 -7 -51 8 -57 10 -4 15 1 15 15 0 11 -4 17 -10
14 -5 -3 -10 -2 -10 4 0 16 18 22 23 9 2 -7 8 -10 12 -6 4 4 4 11 0 17 -7 12
-28 14 -38 4z"/>
<path d="M3770 2360 c0 -5 6 -7 14 -4 8 3 17 1 21 -5 3 -7 -2 -11 -14 -11 -25
0 -26 -4 -5 -35 20 -30 39 -33 24 -4 -15 27 -7 34 20 19 29 -15 38 -5 11 12
-12 7 -21 18 -21 25 0 7 -11 13 -25 13 -14 0 -25 -4 -25 -10z"/>
<path d="M3895 2350 c-3 -5 -1 -10 4 -10 6 0 11 5 11 10 0 6 -2 10 -4 10 -3 0
-8 -4 -11 -10z"/>
<path d="M3210 2270 c0 -33 3 -40 20 -40 16 0 40 26 40 44 0 10 -32 36 -46 36
-10 0 -14 -12 -14 -40z m33 5 c4 -8 2 -17 -3 -20 -6 -4 -10 3 -10 14 0 25 6
27 13 6z"/>
<path d="M3337 2293 c-7 -10 3 -63 12 -63 8 0 8 56 0 65 -4 3 -9 3 -12 -2z"/>
<path d="M3280 2281 c0 -5 6 -12 13 -14 7 -3 5 -6 -5 -6 -28 -1 -22 -31 6 -31
31 0 36 8 25 38 -8 21 -39 32 -39 13z"/>
<path d="M3373 2276 c3 -8 1 -17 -6 -19 -20 -6 11 -36 32 -30 19 5 24 31 8 51
-13 17 -40 15 -34 -2z"/>
<path d="M3143 2164 c-4 -10 1 -22 11 -30 16 -12 16 -13 -1 -17 -12 -3 -9 -5
10 -6 31 -1 37 22 10 38 -17 10 -17 10 0 11 10 0 15 5 12 10 -10 16 -35 12
-42 -6z"/>
<path d="M3240 2145 c0 -19 5 -35 10 -35 6 0 10 16 8 35 -1 19 -6 35 -10 35
-4 0 -8 -16 -8 -35z"/>
<path d="M3207 2153 c-12 -11 -8 -41 6 -46 10 -4 14 4 14 24 0 28 -7 36 -20
22z"/>
<path d="M3277 2154 c-12 -12 -8 -42 6 -47 21 -8 39 8 35 29 -3 19 -29 30 -41
18z"/>
<path d="M3331 2133 c0 -25 1 -26 9 -8 7 17 9 17 9 3 1 -10 6 -18 12 -18 18 0
5 45 -13 48 -14 3 -18 -3 -17 -25z"/>
<path d="M3387 2153 c-11 -10 -8 -43 3 -44 63 -6 75 -2 75 21 0 30 -25 39 -32
11 -5 -21 -33 -30 -33 -11 0 6 5 10 10 10 6 0 10 5 10 10 0 11 -23 14 -33 3z"/>
<path d="M5077 1794 c-14 -14 -7 -35 11 -32 9 2 17 10 17 17 0 16 -18 25 -28
15z"/>
<path d="M1090 1772 c-26 -21 -43 -99 -34 -160 9 -57 49 -92 109 -92 27 0 51
7 66 19 32 26 18 37 -27 23 -29 -9 -44 -8 -70 3 -38 16 -49 44 -41 111 7 63
31 87 82 82 22 -3 48 -8 58 -12 20 -10 24 13 5 32 -19 19 -122 15 -148 -6z"/>
<path d="M4030 1655 l0 -135 55 0 c81 0 118 19 138 69 22 53 21 85 0 138 -22
51 -45 63 -128 63 l-65 0 0 -135z m141 76 c24 -25 29 -37 29 -78 0 -26 -6 -56
-14 -65 -10 -14 -76 -37 -108 -38 -5 0 -8 47 -8 105 l0 105 36 0 c26 0 43 -8
65 -29z"/>
<path d="M2333 1773 c-7 -3 -13 -16 -13 -29 0 -15 -6 -24 -15 -24 -8 0 -15 -7
-15 -15 0 -8 7 -15 15 -15 12 0 15 -13 15 -57 0 -77 16 -107 58 -111 24 -2 32
1 32 12 0 10 -9 16 -25 16 -24 0 -25 2 -25 70 0 68 1 70 25 70 16 0 25 6 25
15 0 9 -9 15 -25 15 -20 0 -25 5 -25 24 0 27 -8 36 -27 29z"/>
<path d="M1308 1699 c-25 -18 -28 -27 -28 -78 0 -72 25 -101 86 -101 66 0 112
59 99 127 -12 67 -99 95 -157 52z m97 -23 c27 -20 27 -90 0 -110 -58 -44 -111
9 -89 91 9 32 57 43 89 19z"/>
<path d="M1517 1713 c-9 -8 -9 -156 -1 -177 3 -9 12 -16 20 -16 11 0 14 17 14
70 0 64 2 71 26 87 44 28 58 9 62 -81 3 -68 5 -76 22 -76 18 0 20 7 20 75 0
65 3 76 20 85 12 6 30 8 40 5 18 -6 20 -16 20 -86 0 -72 2 -79 20 -79 18 0 20
7 20 80 0 67 -3 83 -20 100 -24 24 -57 26 -88 4 -20 -14 -24 -14 -38 0 -20 21
-63 20 -86 -1 -17 -15 -18 -15 -18 0 0 17 -21 23 -33 10z"/>
<path d="M1865 1708 c-2 -7 -3 -67 -2 -133 2 -105 4 -120 20 -123 14 -3 17 4
17 42 0 43 11 59 25 36 3 -5 21 -10 40 -10 48 0 75 37 75 105 0 41 -5 56 -23
73 -28 26 -73 28 -99 5 -17 -15 -18 -15 -18 0 0 20 -29 23 -35 5z m116 -28
c26 -14 27 -97 2 -116 -24 -18 -39 -17 -63 3 -25 22 -27 79 -3 105 18 20 36
23 64 8z"/>
<path d="M2081 1641 c3 -60 9 -84 23 -100 21 -24 74 -28 95 -8 11 10 14 10 18
0 3 -7 11 -13 19 -13 11 0 14 20 14 100 0 93 -1 100 -20 100 -18 0 -20 -7 -20
-73 0 -68 -2 -75 -25 -87 -22 -12 -27 -11 -45 5 -16 15 -20 31 -20 87 0 62 -2
68 -21 68 -20 0 -21 -4 -18 -79z"/>
<path d="M2482 1700 c-28 -26 -38 -82 -22 -123 18 -43 37 -57 81 -57 47 0 69
8 69 26 0 10 -12 12 -49 7 -43 -5 -50 -3 -65 18 -9 13 -16 27 -16 31 0 5 32 8
70 8 l70 0 0 33 c0 67 -88 103 -138 57z m96 -37 c3 -21 0 -23 -47 -23 -44 0
-50 2 -44 18 9 25 24 33 58 30 23 -2 31 -9 33 -25z"/>
<path d="M2677 1713 c-2 -5 -4 -48 -3 -97 1 -62 5 -91 14 -93 9 -4 12 13 12
59 0 77 14 101 59 100 25 0 32 3 29 16 -4 24 -46 27 -69 6 -17 -16 -19 -16
-19 -1 0 17 -15 23 -23 10z"/>
<path d="M4306 1689 c-50 -59 -24 -155 47 -172 90 -23 153 108 86 179 -35 37
-99 34 -133 -7z m111 -13 c10 -9 4 -98 -7 -111 -14 -17 -43 -19 -71 -5 -26 15
-28 104 -1 120 15 9 69 7 79 -4z"/>
<path d="M4520 1619 c0 -90 2 -100 18 -97 14 3 17 15 18 63 2 86 2 85 29 95
47 18 55 5 55 -81 0 -72 2 -79 20 -79 18 0 20 7 20 75 0 71 1 76 25 85 47 18
55 5 55 -81 0 -72 2 -79 20 -79 18 0 20 7 20 78 0 90 -15 122 -58 122 -15 0
-38 -7 -50 -16 -20 -14 -24 -14 -38 0 -20 21 -63 20 -86 -1 -17 -15 -18 -15
-18 0 0 10 -7 17 -15 17 -12 0 -15 -18 -15 -101z"/>
<path d="M4878 1709 c-33 -19 -19 -30 35 -27 46 3 52 1 55 -18 3 -18 -3 -22
-38 -27 -56 -7 -72 -23 -68 -66 2 -28 9 -39 33 -50 25 -12 33 -12 57 2 15 9
28 12 28 7 0 -6 7 -10 15 -10 12 0 15 15 15 78 0 99 -14 122 -73 122 -23 0
-50 -5 -59 -11z m90 -126 c-2 -23 -8 -29 -36 -31 -23 -2 -34 2 -39 14 -8 21
21 44 55 44 20 0 23 -4 20 -27z"/>
<path d="M5070 1619 c0 -90 2 -100 17 -97 15 3 18 16 19 83 2 94 -2 115 -22
115 -11 0 -14 -20 -14 -101z"/>
<path d="M5170 1619 c0 -89 2 -100 17 -97 14 3 17 15 18 73 0 65 2 71 27 83
48 23 58 9 58 -79 0 -72 2 -79 20 -79 21 0 22 6 23 102 1 62 -23 98 -65 98
-17 0 -40 -7 -50 -17 -17 -15 -18 -15 -18 0 0 10 -7 17 -15 17 -12 0 -15 -18
-15 -101z"/>
<path d="M3356 1625 c-19 -29 -11 -33 16 -8 17 15 18 15 18 -12 0 -22 -4 -26
-20 -22 -11 3 -23 1 -26 -4 -3 -5 10 -9 28 -9 29 0 33 3 33 28 0 29 -11 52
-24 52 -5 0 -16 -11 -25 -25z"/>
<path d="M3340 1543 c0 -8 13 -13 36 -13 41 0 38 16 -6 22 -20 3 -30 0 -30 -9z"/>
<path d="M3340 1496 c0 -9 8 -12 25 -8 18 3 25 0 25 -12 0 -11 -9 -16 -27 -16
-22 0 -25 -2 -13 -10 10 -6 11 -10 3 -10 -7 0 -13 -4 -13 -10 0 -5 17 -10 38
-10 32 1 35 2 20 13 -15 12 -15 14 -1 23 13 8 14 14 4 32 -13 24 -61 31 -61 8z"/>
<path d="M3189 1438 c-12 -22 -12 -22 -20 -3 -7 19 -8 19 -8 -2 -1 -27 15 -29
41 -6 17 15 18 15 18 -10 0 -23 -3 -26 -30 -22 -16 2 -30 0 -30 -5 0 -5 12
-10 27 -12 39 -5 40 -26 1 -31 -33 -4 -33 -4 5 -5 l38 -2 -3 57 c-3 61 -19 78
-39 41z"/>
<path d="M3310 1430 c0 -5 5 -10 11 -10 5 0 7 5 4 10 -3 6 -8 10 -11 10 -2 0
-4 -4 -4 -10z"/>
<path d="M3356 1375 c-21 -33 -20 -43 6 -47 32 -5 35 -28 4 -28 -14 0 -26 -4
-26 -10 0 -14 46 -12 57 3 8 10 10 49 5 95 -3 20 -29 14 -46 -13z m34 -15 c0
-14 -7 -20 -22 -20 -20 0 -21 1 -3 20 10 11 20 20 22 20 1 0 3 -9 3 -20z"/>
<path d="M1670 1340 c-18 -11 -4 -42 17 -38 10 2 19 10 21 19 4 19 -19 31 -38
19z"/>
<path d="M5041 1341 c-19 -12 -6 -41 19 -41 16 0 21 5 18 22 -3 25 -17 32 -37
19z"/>
<path d="M1302 1320 c-31 -29 -30 -82 3 -108 13 -11 37 -25 54 -31 33 -14 42
-36 29 -70 -7 -19 -14 -22 -41 -19 -17 3 -40 8 -49 13 -14 5 -18 2 -18 -13 0
-24 18 -32 68 -32 57 1 100 47 88 95 -6 24 -57 68 -93 79 -30 10 -31 51 -2 67
16 8 28 8 46 0 32 -15 33 -14 33 8 0 35 -84 42 -118 11z"/>
<path d="M3910 1200 l0 -141 78 3 c60 2 77 6 77 18 0 11 -13 15 -55 15 l-55 0
-3 48 -3 47 50 0 c39 0 51 4 51 15 0 11 -12 15 -50 15 l-50 0 0 40 0 40 55 0
c48 0 55 2 55 20 0 18 -7 20 -75 20 l-75 0 0 -140z"/>
<path d="M3167 1324 c-16 -16 -7 -55 16 -63 34 -13 48 -2 45 33 -2 25 -8 32
-28 34 -14 2 -29 0 -33 -4z m51 -31 c5 -17 -26 -29 -40 -15 -6 6 -7 15 -3 22
9 14 37 9 43 -7z"/>
<path d="M4907 1313 c-4 -3 -7 -17 -7 -30 0 -14 -6 -23 -15 -23 -8 0 -15 -4
-15 -9 0 -5 7 -11 15 -15 11 -4 15 -21 15 -63 0 -79 8 -100 39 -111 33 -12 51
-5 51 19 0 12 -5 16 -14 13 -22 -9 -37 31 -34 89 l3 52 35 1 c59 1 60 -1 60
-92 0 -77 2 -84 20 -84 19 0 20 7 20 100 l0 100 -70 0 -70 0 0 30 c0 28 -17
40 -33 23z"/>
<path d="M3350 1262 c-40 -4 -66 -22 -31 -22 13 0 20 -4 16 -11 -4 -6 2 -5 14
3 15 9 23 10 32 1 16 -16 1 -35 -22 -28 -10 4 -19 2 -19 -3 0 -13 35 -21 50
-12 17 10 21 57 7 67 -7 5 -28 7 -47 5z"/>
<path d="M1500 1240 c-36 -36 -38 -109 -4 -158 19 -28 98 -32 108 -6 11 28 6
32 -23 21 -35 -13 -58 -5 -72 27 -30 65 20 133 77 107 23 -10 26 -10 20 4 -3
9 -6 19 -6 21 0 2 -18 4 -40 4 -26 0 -47 -7 -60 -20z"/>
<path d="M1664 1246 c-3 -8 -4 -52 -2 -98 2 -69 6 -83 21 -86 15 -3 17 7 17
97 0 84 -3 101 -15 101 -9 0 -18 -6 -21 -14z"/>
<path d="M1793 1248 c-50 -24 -54 -130 -6 -168 38 -30 133 -26 133 6 0 10 -12
12 -49 7 -43 -5 -50 -3 -65 18 -9 13 -16 27 -16 31 0 5 32 8 70 8 l70 0 0 33
c0 17 -4 37 -8 43 -21 32 -86 43 -129 22z m87 -27 c18 -34 12 -41 -40 -41 -54
0 -58 4 -34 38 19 27 60 29 74 3z"/>
<path d="M1974 1247 c-3 -8 -4 -51 -2 -98 3 -70 6 -84 21 -87 15 -3 17 5 17
65 1 52 5 73 19 91 41 48 71 21 71 -64 0 -71 6 -94 26 -94 11 0 14 19 14 83 0
69 -3 87 -18 100 -22 20 -72 22 -91 5 -11 -10 -14 -10 -18 0 -6 16 -32 16 -39
-1z"/>
<path d="M2234 1248 c-57 -27 -57 -147 0 -177 30 -17 86 -10 100 11 15 24 4
29 -33 15 -30 -11 -34 -10 -52 12 -22 26 -24 54 -8 100 12 33 34 40 71 20 25
-13 35 -5 18 16 -14 17 -64 19 -96 3z"/>
<path d="M2412 1246 c-27 -13 -47 -73 -38 -111 11 -45 50 -75 95 -75 49 0 71
8 71 26 0 10 -12 12 -49 7 -43 -5 -50 -3 -65 18 -9 13 -16 27 -16 31 0 5 32 8
70 8 l70 0 0 33 c0 38 -7 50 -37 66 -26 13 -70 13 -101 -3z m86 -18 c7 -7 12
-20 12 -30 0 -15 -9 -18 -50 -18 -43 0 -49 2 -43 18 15 42 54 57 81 30z"/>
<path d="M4100 1254 c0 -3 12 -26 26 -50 l26 -45 -26 -37 c-14 -21 -26 -43
-26 -50 0 -25 31 -11 51 23 12 19 25 35 30 35 6 0 17 -16 25 -35 9 -23 21 -35
34 -35 26 0 25 10 -5 54 -14 20 -25 44 -25 53 0 9 11 31 25 49 30 39 31 44 5
44 -12 0 -26 -13 -38 -37 l-19 -37 -13 24 c-7 14 -19 30 -26 37 -13 13 -44 18
-44 7z"/>
<path d="M4300 1127 c0 -74 3 -136 6 -140 17 -16 31 7 28 45 -4 44 -8 42 54
22 27 -8 70 32 82 77 13 47 1 93 -27 115 -23 17 -75 18 -92 2 -11 -10 -14 -10
-18 0 -3 6 -11 12 -19 12 -11 0 -14 -25 -14 -133z m114 97 c31 -31 13 -134
-23 -134 -53 0 -75 96 -30 133 26 21 33 21 53 1z"/>
<path d="M4553 1248 c-44 -21 -42 -155 4 -179 32 -17 96 -17 117 0 24 20 9 32
-33 25 -44 -7 -76 7 -84 36 -5 19 -1 20 64 20 l69 0 0 33 c0 17 -4 37 -8 43
-21 32 -86 43 -129 22z m87 -15 c0 -5 3 -18 6 -30 6 -22 3 -23 -45 -23 -44 0
-50 2 -44 18 3 9 13 23 21 30 17 13 62 17 62 5z"/>
<path d="M4747 1253 c-4 -3 -7 -49 -7 -100 0 -84 2 -94 17 -91 15 3 18 15 18
69 1 76 14 99 57 99 19 0 28 4 26 13 -6 17 -46 21 -65 5 -13 -10 -17 -10 -20
0 -5 13 -16 16 -26 5z"/>
<path d="M5139 1241 c-20 -16 -21 -21 -10 -47 6 -17 27 -38 46 -48 58 -31 35
-72 -27 -48 -27 10 -29 9 -26 -10 7 -49 109 -40 126 10 12 37 6 50 -38 72 -66
34 -64 76 3 66 35 -6 39 -5 27 9 -17 21 -73 19 -101 -4z"/>
<path d="M5325 1248 c-30 -17 -35 -28 -35 -89 0 -61 20 -91 70 -102 35 -8 84
6 88 25 2 13 -7 16 -49 14 -47 -1 -54 2 -66 24 l-12 25 69 3 70 3 0 32 c0 18
-4 37 -8 43 -21 32 -89 44 -127 22z m85 -27 c18 -34 12 -41 -40 -41 -43 0 -49
2 -43 18 14 42 65 56 83 23z"/>
<path d="M3178 1233 c12 -2 30 -2 40 0 9 3 -1 5 -23 4 -22 0 -30 -2 -17 -4z"/>
<path d="M3160 1198 c0 -25 3 -28 35 -28 19 0 35 5 35 10 0 6 -11 10 -25 10
-13 0 -29 8 -34 18 -9 14 -10 13 -11 -10z"/>
<path d="M3362 1167 c-31 -14 -27 -24 9 -21 37 3 41 6 25 20 -8 7 -19 8 -34 1z"/>
<path d="M3160 1148 c0 -4 11 -8 24 -8 14 0 28 -4 31 -10 4 -6 -7 -10 -24 -10
-17 0 -31 -4 -31 -10 0 -5 16 -10 35 -10 32 0 35 3 35 28 0 24 -4 27 -35 28
-19 0 -35 -3 -35 -8z"/>
<path d="M3353 1133 c-24 -8 -13 -23 17 -23 17 0 30 4 30 9 0 11 -30 19 -47
14z"/>
<path d="M3337 1079 c-4 -17 -3 -19 6 -10 18 18 46 14 42 -6 -1 -12 -10 -17
-24 -16 -22 3 -29 -13 -8 -20 36 -12 65 20 47 54 -15 26 -56 25 -63 -2z"/>
<path d="M3164 1076 c-3 -8 -4 -25 -2 -38 3 -20 8 -23 43 -20 44 4 55 10 38
20 -6 4 -12 16 -14 27 -5 25 -56 34 -65 11z m56 -21 c0 -16 -35 -21 -44 -6 -8
12 4 21 26 21 10 0 18 -7 18 -15z"/>
<path d="M3310 997 c0 -13 11 -33 25 -45 14 -12 25 -17 25 -11 0 6 6 9 13 6
18 -7 39 30 32 54 -9 27 -23 24 -18 -5 4 -16 0 -25 -14 -28 -29 -8 -43 2 -43
28 0 13 -4 24 -10 24 -5 0 -10 -10 -10 -23z"/>
<path d="M3175 986 c-18 -27 -39 -27 -28 -1 3 8 0 15 -6 15 -16 0 -14 -35 4
-50 11 -9 19 -7 40 14 31 31 39 33 32 6 -3 -11 -1 -23 5 -26 5 -4 8 7 6 27 -4
43 -30 50 -53 15z"/>
</g>
</svg>
