<?xml version="1.0" standalone="no"?>
<!DOCTYPE svg PUBLIC "-//W3C//DTD SVG 20010904//EN"
 "http://www.w3.org/TR/2001/REC-SVG-20010904/DTD/svg10.dtd">
<svg version="1.0" xmlns="http://www.w3.org/2000/svg"
 width="800.000000pt" height="450.000000pt" viewBox="0 0 800.000000 450.000000"
 preserveAspectRatio="xMidYMid meet">

<g transform="translate(0.000000,450.000000) scale(0.100000,-0.100000)"
fill="#000000" stroke="none">
<path d="M230 4180 c0 -27 5 -50 10 -50 6 0 10 23 10 50 0 28 -4 50 -10 50 -5
0 -10 -22 -10 -50z"/>
<path d="M162 4208 c-28 -28 -7 -79 32 -77 18 1 17 2 -4 8 -19 5 -25 13 -25
36 0 23 6 31 25 36 21 6 22 7 5 8 -12 1 -26 -4 -33 -11z"/>
<path d="M512 4183 c-1 -23 -8 -44 -14 -46 -7 -3 1 -6 17 -6 17 0 25 3 18 7
-6 4 -13 25 -16 47 l-4 40 -1 -42z"/>
<path d="M276 4191 c-3 -5 3 -7 14 -4 11 3 20 1 20 -5 0 -5 -9 -12 -20 -15
-30 -8 -25 -37 6 -37 23 0 25 3 22 32 -3 32 -29 50 -42 29z m29 -41 c-3 -5
-10 -10 -16 -10 -5 0 -9 5 -9 10 0 6 7 10 16 10 8 0 12 -4 9 -10z"/>
<path d="M344 4188 c-4 -6 0 -16 9 -23 22 -16 21 -22 0 -28 -14 -4 -12 -5 5
-6 25 -1 31 26 7 35 -20 8 -19 21 3 27 15 4 15 5 0 6 -9 0 -20 -4 -24 -11z"/>
<path d="M404 4188 c-4 -6 0 -16 9 -23 22 -16 21 -22 0 -28 -14 -4 -12 -5 5
-6 25 -1 31 26 7 35 -20 8 -19 21 3 27 15 4 15 5 0 6 -9 0 -20 -4 -24 -11z"/>
<path d="M1450 4118 c8 -8 1129 -833 2490 -1833 2837 -2085 2631 -1934 2605
-1908 -15 15 -5010 3688 -5095 3747 -13 9 -13 8 0 -6z"/>
<path d="M4146 4104 c-25 -24 -20 -29 33 -29 42 0 48 2 38 15 -27 34 -47 38
-71 14z"/>
<path d="M5095 4054 c-20 -20 -16 -42 10 -60 18 -12 24 -11 43 2 27 19 28 50
3 64 -27 14 -37 13 -56 -6z"/>
<path d="M230 4000 c0 -27 5 -50 10 -50 6 0 10 23 10 50 0 28 -4 50 -10 50 -5
0 -10 -22 -10 -50z"/>
<path d="M20 4020 c-25 -25 -25 -42 -2 -63 24 -22 55 -21 75 1 23 25 21 48 -5
66 -30 21 -44 20 -68 -4z"/>
<path d="M162 4028 c-28 -28 -7 -79 32 -77 18 1 17 2 -4 8 -19 5 -25 13 -25
36 0 23 6 31 25 36 21 6 22 7 5 8 -12 1 -26 -4 -33 -11z"/>
<path d="M496 4031 c-4 -5 3 -7 14 -4 26 7 26 -18 0 -42 -28 -26 -25 -35 13
-34 23 1 26 3 10 6 -21 4 -22 6 -7 29 9 13 14 31 10 39 -6 16 -32 20 -40 6z"/>
<path d="M276 4011 c-3 -5 3 -7 14 -4 11 3 20 1 20 -5 0 -5 -9 -12 -20 -15
-30 -8 -25 -37 6 -37 23 0 25 3 22 32 -3 32 -29 50 -42 29z m29 -41 c-3 -5
-10 -10 -16 -10 -5 0 -9 5 -9 10 0 6 7 10 16 10 8 0 12 -4 9 -10z"/>
<path d="M344 4008 c-4 -6 0 -16 9 -23 22 -16 21 -22 0 -28 -14 -4 -12 -5 5
-6 25 -1 31 26 7 35 -20 8 -19 21 3 27 15 4 15 5 0 6 -9 0 -20 -4 -24 -11z"/>
<path d="M404 4008 c-4 -6 0 -16 9 -23 22 -16 21 -22 0 -28 -14 -4 -12 -5 5
-6 25 -1 31 26 7 35 -20 8 -19 21 3 27 15 4 15 5 0 6 -9 0 -20 -4 -24 -11z"/>
<path d="M4825 3954 c-20 -20 -16 -42 10 -60 18 -12 24 -11 43 2 27 19 28 50
3 64 -27 14 -37 13 -56 -6z"/>
<path d="M323 3820 c0 -30 1 -47 4 -37 6 22 19 22 27 1 4 -9 9 -14 13 -11 3 4
0 13 -7 22 -10 12 -10 18 1 33 12 15 11 15 -8 -1 -21 -19 -22 -19 -26 15 -2
20 -4 11 -4 -22z"/>
<path d="M151 3829 c-1 -43 21 -69 47 -52 11 6 18 25 18 49 l2 39 -7 -40 c-5
-31 -10 -40 -26 -40 -16 0 -21 9 -26 40 l-6 40 -2 -36z"/>
<path d="M25 3824 c-20 -20 -16 -42 10 -60 18 -12 24 -11 43 2 27 19 28 50 3
64 -27 14 -37 13 -56 -6z"/>
<path d="M241 3801 c1 -36 1 -36 8 -6 3 17 13 30 21 30 8 0 18 -13 22 -30 6
-29 6 -29 5 5 -2 31 -5 35 -29 36 -26 1 -28 -2 -27 -35z"/>
<path d="M391 3801 c1 -36 1 -36 8 -6 3 17 13 30 21 30 8 0 18 -13 22 -30 6
-29 6 -29 5 5 -2 31 -5 35 -29 36 -26 1 -28 -2 -27 -35z"/>
<path d="M474 3826 c-11 -29 0 -51 26 -51 21 0 25 5 25 30 0 24 -5 31 -23 33
-13 2 -24 -3 -28 -12z m46 -21 c0 -25 -23 -35 -35 -15 -10 16 2 40 20 40 9 0
15 -9 15 -25z"/>
<path d="M556 3806 c5 -33 11 -43 20 -33 4 4 2 12 -3 19 -6 7 -13 20 -16 28
-2 8 -3 2 -1 -14z"/>
<path d="M586 3825 c-9 -26 -7 -32 5 -12 6 10 9 21 6 23 -2 3 -7 -2 -11 -11z"/>
<path d="M626 3815 c-6 -22 -9 -26 -17 -14 -7 12 -9 11 -9 -3 0 -29 20 -30 30
-2 6 15 9 32 7 38 -2 6 -7 -2 -11 -19z"/>
<path d="M661 3801 c1 -36 1 -36 8 -6 3 17 13 30 21 30 8 0 18 -13 22 -30 6
-29 6 -29 5 5 -2 31 -5 35 -29 36 -26 1 -28 -2 -27 -35z"/>
<path d="M5025 3814 c-34 -34 4 -77 49 -56 31 14 34 47 7 62 -27 14 -37 13
-56 -6z"/>
<path d="M5356 3814 c-22 -21 -20 -39 5 -63 17 -15 26 -18 40 -10 33 17 40 44
18 68 -24 25 -42 27 -63 5z"/>
<path d="M4556 3764 c-22 -21 -20 -39 5 -63 17 -15 26 -18 40 -10 33 17 40 44
18 68 -24 25 -42 27 -63 5z"/>
<path d="M6047 3742 c-22 -25 -21 -37 5 -62 28 -26 30 -25 62 7 l26 26 -22 24
c-26 28 -49 29 -71 5z"/>
<path d="M4796 3644 c-23 -22 -20 -39 9 -58 23 -15 27 -15 50 0 14 9 25 22 25
29 0 20 -29 45 -50 45 -10 0 -26 -7 -34 -16z"/>
<path d="M5096 3584 c-22 -21 -20 -39 5 -63 17 -15 26 -18 40 -10 33 17 40 44
18 68 -24 25 -42 27 -63 5z"/>
<path d="M5346 3554 c-22 -21 -20 -39 5 -63 17 -15 26 -18 40 -10 33 17 40 44
18 68 -24 25 -42 27 -63 5z"/>
<path d="M5556 3514 c-22 -21 -20 -39 5 -63 17 -15 26 -18 40 -10 33 17 40 44
18 68 -24 25 -42 27 -63 5z"/>
<path d="M4496 3484 c-23 -22 -20 -39 9 -58 23 -15 27 -15 50 0 14 9 25 22 25
29 0 20 -29 45 -50 45 -10 0 -26 -7 -34 -16z"/>
<path d="M4975 3474 c-20 -20 -16 -42 10 -60 18 -12 24 -11 43 2 27 19 28 50
3 64 -27 14 -37 13 -56 -6z"/>
<path d="M3365 3434 c-20 -20 -16 -42 10 -60 18 -12 24 -11 43 2 27 19 28 50
3 64 -27 14 -37 13 -56 -6z"/>
<path d="M5075 3373 c-21 -20 -19 -39 7 -57 19 -13 25 -14 43 -2 30 20 26 58
-8 67 -19 5 -32 3 -42 -8z"/>
<path d="M4846 3334 c-23 -22 -20 -39 9 -58 23 -15 27 -15 50 0 14 9 25 22 25
29 0 20 -29 45 -50 45 -10 0 -26 -7 -34 -16z"/>
<path d="M4346 3314 c-22 -21 -20 -39 5 -63 17 -15 26 -18 40 -10 33 17 40 44
18 68 -24 25 -42 27 -63 5z"/>
<path d="M5175 3274 c-20 -20 -16 -42 10 -60 18 -12 24 -11 43 2 27 19 28 50
3 64 -27 14 -37 13 -56 -6z"/>
<path d="M4646 3264 c-23 -22 -20 -39 9 -58 23 -15 27 -15 50 0 14 9 25 22 25
29 0 20 -29 45 -50 45 -10 0 -26 -7 -34 -16z"/>
<path d="M5476 3214 c-22 -21 -20 -39 5 -63 17 -15 26 -18 40 -10 33 17 40 44
18 68 -24 25 -42 27 -63 5z"/>
<path d="M4692 3081 c-10 -6 -5 -10 16 -14 19 -4 33 -14 37 -27 7 -22 25 -18
25 5 0 33 -48 56 -78 36z"/>
<path d="M5246 3074 c-23 -22 -20 -39 9 -58 23 -15 27 -15 50 0 14 9 25 22 25
29 0 20 -29 45 -50 45 -10 0 -26 -7 -34 -16z"/>
<path d="M4446 3024 c-23 -22 -20 -39 9 -58 23 -15 27 -15 50 0 14 9 25 22 25
29 0 20 -29 45 -50 45 -10 0 -26 -7 -34 -16z"/>
<path d="M4896 3024 c-23 -22 -20 -39 9 -58 23 -15 27 -15 50 0 14 9 25 22 25
29 0 20 -29 45 -50 45 -10 0 -26 -7 -34 -16z"/>
<path d="M5416 2994 c-23 -22 -20 -39 9 -58 23 -15 27 -15 50 0 14 9 25 22 25
29 0 20 -29 45 -50 45 -10 0 -26 -7 -34 -16z"/>
<path d="M5186 2854 c-22 -21 -20 -39 5 -63 17 -15 26 -18 40 -10 33 17 40 44
18 68 -24 25 -42 27 -63 5z"/>
<path d="M5057 2812 c-22 -25 -21 -37 5 -62 28 -26 30 -25 62 7 l26 26 -22 24
c-26 28 -49 29 -71 5z"/>
<path d="M4696 2764 c-23 -22 -20 -39 9 -58 23 -15 27 -15 50 0 14 9 25 22 25
29 0 20 -29 45 -50 45 -10 0 -26 -7 -34 -16z"/>
<path d="M4583 2618 c-45 -22 -37 -82 12 -94 32 -8 75 19 75 46 0 23 -34 60
-52 59 -7 0 -23 -5 -35 -11z"/>
<path d="M4145 2484 c-20 -20 -16 -42 10 -60 18 -12 24 -11 43 2 27 19 28 50
3 64 -27 14 -37 13 -56 -6z"/>
<path d="M2850 2430 c-25 -25 -25 -42 -2 -63 24 -22 55 -21 75 1 23 25 21 48
-5 66 -30 21 -44 20 -68 -4z"/>
<path d="M1687 2392 c-22 -25 -21 -37 5 -62 28 -26 30 -25 62 7 l26 26 -22 24
c-26 28 -49 29 -71 5z"/>
<path d="M1820 2130 c-25 -25 -25 -42 -2 -63 24 -22 55 -21 75 1 23 25 21 48
-5 66 -30 21 -44 20 -68 -4z"/>
<path d="M2866 2124 c-22 -21 -20 -39 5 -63 24 -22 51 -15 68 18 8 14 5 23
-10 40 -24 25 -42 27 -63 5z"/>
<path d="M2490 2060 c-24 -24 -25 -38 -4 -68 16 -24 53 -29 72 -10 9 9 18 5
38 -15 21 -21 30 -24 45 -17 33 18 40 45 18 69 -24 25 -42 27 -63 5 -15 -14
-16 -14 -16 0 0 20 -35 56 -55 56 -8 0 -24 -9 -35 -20z"/>
<path d="M2796 1884 c-22 -21 -20 -39 5 -63 24 -22 51 -15 68 18 8 14 5 23
-10 40 -24 25 -42 27 -63 5z"/>
<path d="M3125 1874 c-20 -20 -16 -42 10 -60 18 -12 24 -11 43 2 27 19 28 50
3 64 -27 14 -37 13 -56 -6z"/>
<path d="M2923 1828 c-45 -22 -37 -82 12 -94 32 -8 75 19 75 46 0 23 -34 60
-52 59 -7 0 -23 -5 -35 -11z"/>
<path d="M2507 1762 c-22 -25 -21 -37 5 -62 28 -26 30 -25 62 7 l26 26 -22 24
c-26 28 -49 29 -71 5z"/>
<path d="M3320 1730 c-11 -11 -20 -26 -20 -33 0 -24 31 -57 54 -57 26 0 56 28
56 53 0 21 -35 57 -55 57 -8 0 -24 -9 -35 -20z"/>
<path d="M2256 1664 c-22 -21 -20 -39 5 -63 17 -15 26 -18 40 -10 33 17 40 44
18 68 -24 25 -42 27 -63 5z"/>
<path d="M2866 1654 c-22 -21 -20 -39 5 -63 24 -22 51 -15 68 18 8 14 5 23
-10 40 -24 25 -42 27 -63 5z"/>
<path d="M3845 1644 c-20 -20 -16 -42 10 -60 18 -12 24 -11 43 2 27 19 28 50
3 64 -27 14 -37 13 -56 -6z"/>
<path d="M3106 1614 c-23 -22 -20 -39 9 -58 23 -15 27 -15 50 0 29 19 32 36 9
58 -20 20 -48 20 -68 0z"/>
<path d="M1473 1568 c-45 -22 -37 -82 12 -94 32 -8 75 19 75 46 0 23 -34 60
-52 59 -7 0 -23 -5 -35 -11z"/>
<path d="M2748 1546 c-8 -7 -24 -16 -36 -20 -28 -9 -52 -33 -52 -52 0 -21 37
-54 61 -54 11 0 41 20 66 45 40 40 43 48 32 63 -28 35 -49 41 -71 18z"/>
<path d="M3310 1510 c-11 -11 -20 -26 -20 -33 0 -24 31 -57 54 -57 26 0 56 28
56 53 0 21 -35 57 -55 57 -8 0 -24 -9 -35 -20z"/>
<path d="M2436 1465 c-15 -8 -36 -15 -46 -15 -22 0 -50 -26 -50 -45 0 -7 11
-20 25 -29 23 -15 28 -15 47 -2 13 9 31 13 45 10 29 -8 73 20 73 46 0 18 -34
50 -55 50 -5 0 -23 -7 -39 -15z"/>
<path d="M2846 1444 c-22 -21 -20 -39 5 -63 24 -22 51 -15 68 18 8 14 5 23
-10 40 -24 25 -42 27 -63 5z"/>
<path d="M2617 1402 c-22 -25 -21 -37 5 -62 28 -26 30 -25 62 7 l26 26 -22 24
c-26 28 -49 29 -71 5z"/>
<path d="M4470 1400 c-11 -11 -20 -26 -20 -33 0 -24 31 -57 54 -57 26 0 56 28
56 53 0 21 -35 57 -55 57 -8 0 -24 -9 -35 -20z"/>
<path d="M2077 1392 c-22 -25 -21 -37 5 -62 28 -26 30 -25 62 7 l26 26 -22 24
c-26 28 -49 29 -71 5z"/>
<path d="M2946 1344 c-22 -21 -20 -39 5 -63 17 -15 26 -18 40 -10 33 17 40 44
18 68 -24 25 -42 27 -63 5z"/>
<path d="M3080 1340 c-25 -25 -25 -42 -2 -63 24 -22 55 -21 75 1 23 25 21 48
-5 66 -30 21 -44 20 -68 -4z"/>
<path d="M3245 1274 c-20 -20 -16 -42 10 -60 18 -12 24 -11 43 2 27 19 28 50
3 64 -27 14 -37 13 -56 -6z"/>
<path d="M3953 1280 c-33 -14 -40 -50 -13 -72 12 -10 30 -18 39 -18 26 0 61
29 61 50 0 19 -35 51 -55 49 -5 0 -20 -4 -32 -9z"/>
<path d="M2753 1268 c-45 -22 -37 -82 12 -94 32 -8 75 19 75 46 0 23 -34 60
-52 59 -7 0 -23 -5 -35 -11z"/>
<path d="M2053 1248 c-45 -22 -37 -82 12 -94 32 -8 75 19 75 46 0 23 -34 60
-52 59 -7 0 -23 -5 -35 -11z"/>
<path d="M3540 1230 c-11 -11 -20 -26 -20 -33 0 -24 31 -57 54 -57 26 0 56 28
56 53 0 21 -35 57 -55 57 -8 0 -24 -9 -35 -20z"/>
<path d="M2456 1144 c-22 -21 -20 -39 5 -63 17 -15 26 -18 40 -10 33 17 40 44
18 68 -24 25 -42 27 -63 5z"/>
<path d="M3017 1142 c-22 -25 -21 -37 5 -62 28 -26 30 -25 62 7 l26 26 -22 24
c-26 28 -49 29 -71 5z"/>
<path d="M1466 1094 c-22 -21 -20 -39 5 -63 17 -15 26 -18 40 -10 33 17 40 44
18 68 -24 25 -42 27 -63 5z"/>
<path d="M2667 1092 c-22 -25 -21 -37 5 -62 28 -26 30 -25 62 7 l26 26 -22 24
c-26 28 -49 29 -71 5z"/>
<path d="M2146 1074 c-22 -21 -20 -39 5 -63 17 -15 26 -18 40 -10 33 17 40 44
18 68 -24 25 -42 27 -63 5z"/>
<path d="M3187 1062 c-22 -25 -21 -37 5 -62 28 -26 30 -25 62 7 l26 26 -22 24
c-26 28 -49 29 -71 5z"/>
<path d="M2956 914 c-22 -21 -20 -39 5 -63 17 -15 26 -18 40 -10 33 17 40 44
18 68 -24 25 -42 27 -63 5z"/>
<path d="M3270 890 c-11 -11 -20 -26 -20 -33 0 -24 31 -57 54 -57 26 0 56 28
56 53 0 21 -35 57 -55 57 -8 0 -24 -9 -35 -20z"/>
<path d="M2826 874 c-23 -22 -20 -39 9 -58 23 -15 27 -15 50 0 14 9 25 22 25
29 0 20 -29 45 -50 45 -10 0 -26 -7 -34 -16z"/>
<path d="M2467 832 c-22 -25 -21 -37 5 -62 28 -26 30 -25 62 7 l26 26 -22 24
c-26 28 -49 29 -71 5z"/>
<path d="M2210 820 c-25 -25 -25 -42 -2 -63 24 -22 55 -21 75 1 23 25 21 48
-5 66 -30 21 -44 20 -68 -4z"/>
<path d="M2703 640 c-33 -14 -40 -50 -13 -72 12 -10 30 -18 39 -18 26 0 61 29
61 50 0 19 -35 51 -55 49 -5 0 -20 -4 -32 -9z"/>
<path d="M3397 442 c-22 -25 -21 -37 5 -62 28 -26 30 -25 62 7 l26 26 -22 24
c-26 28 -49 29 -71 5z"/>
<path d="M2803 428 c-45 -22 -37 -82 12 -94 32 -8 75 19 75 46 0 23 -34 60
-52 59 -7 0 -23 -5 -35 -11z"/>
</g>
</svg>
