<?xml version="1.0" standalone="no"?>
<!DOCTYPE svg PUBLIC "-//W3C//DTD SVG 20010904//EN"
 "http://www.w3.org/TR/2001/REC-SVG-20010904/DTD/svg10.dtd">
<svg version="1.0" xmlns="http://www.w3.org/2000/svg"
 width="800.000000pt" height="450.000000pt" viewBox="0 0 800.000000 450.000000"
 preserveAspectRatio="xMidYMid meet">

<g transform="translate(0.000000,450.000000) scale(0.100000,-0.100000)"
fill="#000000" stroke="none">
<path d="M4146 4104 c-22 -21 -20 -39 5 -63 17 -15 26 -18 40 -10 33 17 40 44
18 68 -24 25 -42 27 -63 5z"/>
<path d="M5095 4054 c-20 -20 -16 -42 10 -60 18 -12 24 -11 43 2 27 19 28 50
3 64 -27 14 -37 13 -56 -6z"/>
<path d="M4825 3954 c-20 -20 -16 -42 10 -60 18 -12 24 -11 43 2 27 19 28 50
3 64 -27 14 -37 13 -56 -6z"/>
<path d="M5025 3814 c-20 -20 -16 -42 10 -60 18 -12 24 -11 43 2 27 19 28 50
3 64 -27 14 -37 13 -56 -6z"/>
<path d="M5356 3814 c-22 -21 -20 -39 5 -63 17 -15 26 -18 40 -10 33 17 40 44
18 68 -24 25 -42 27 -63 5z"/>
<path d="M4556 3764 c-22 -21 -20 -39 5 -63 17 -15 26 -18 40 -10 33 17 40 44
18 68 -24 25 -42 27 -63 5z"/>
<path d="M6047 3742 c-22 -25 -21 -37 5 -62 28 -26 30 -25 62 7 l26 26 -22 24
c-26 28 -49 29 -71 5z"/>
<path d="M4796 3644 c-23 -22 -20 -39 9 -58 23 -15 27 -15 50 0 14 9 25 22 25
29 0 20 -29 45 -50 45 -10 0 -26 -7 -34 -16z"/>
<path d="M5096 3584 c-22 -21 -20 -39 5 -63 17 -15 26 -18 40 -10 33 17 40 44
18 68 -24 25 -42 27 -63 5z"/>
<path d="M5346 3554 c-22 -21 -20 -39 5 -63 17 -15 26 -18 40 -10 33 17 40 44
18 68 -24 25 -42 27 -63 5z"/>
<path d="M5556 3514 c-22 -21 -20 -39 5 -63 17 -15 26 -18 40 -10 33 17 40 44
18 68 -24 25 -42 27 -63 5z"/>
<path d="M3355 3504 c-20 -20 -16 -42 10 -60 18 -12 24 -11 43 2 27 19 28 50
3 64 -27 14 -37 13 -56 -6z"/>
<path d="M4496 3484 c-23 -22 -20 -39 9 -58 23 -15 27 -15 50 0 14 9 25 22 25
29 0 20 -29 45 -50 45 -10 0 -26 -7 -34 -16z"/>
<path d="M4975 3474 c-20 -20 -16 -42 10 -60 18 -12 24 -11 43 2 27 19 28 50
3 64 -27 14 -37 13 -56 -6z"/>
<path d="M5075 3374 c-20 -20 -16 -42 10 -60 18 -12 24 -11 43 2 27 19 28 50
3 64 -27 14 -37 13 -56 -6z"/>
<path d="M4846 3334 c-23 -22 -20 -39 9 -58 23 -15 27 -15 50 0 14 9 25 22 25
29 0 20 -29 45 -50 45 -10 0 -26 -7 -34 -16z"/>
<path d="M5772 3330 c0 -14 2 -19 5 -12 2 6 2 18 0 25 -3 6 -5 1 -5 -13z"/>
<path d="M4346 3314 c-22 -21 -20 -39 5 -63 17 -15 26 -18 40 -10 33 17 40 44
18 68 -24 25 -42 27 -63 5z"/>
<path d="M5175 3274 c-20 -20 -16 -42 10 -60 18 -12 24 -11 43 2 27 19 28 50
3 64 -27 14 -37 13 -56 -6z"/>
<path d="M4646 3264 c-23 -22 -20 -39 9 -58 23 -15 27 -15 50 0 14 9 25 22 25
29 0 20 -29 45 -50 45 -10 0 -26 -7 -34 -16z"/>
<path d="M5476 3214 c-22 -21 -20 -39 5 -63 17 -15 26 -18 40 -10 33 17 40 44
18 68 -24 25 -42 27 -63 5z"/>
<path d="M4686 3074 c-23 -22 -20 -39 9 -58 23 -15 27 -15 50 0 14 9 25 22 25
29 0 20 -29 45 -50 45 -10 0 -26 -7 -34 -16z"/>
<path d="M5246 3074 c-23 -22 -20 -39 9 -58 23 -15 27 -15 50 0 14 9 25 22 25
29 0 20 -29 45 -50 45 -10 0 -26 -7 -34 -16z"/>
<path d="M4446 3024 c-23 -22 -20 -39 9 -58 23 -15 27 -15 50 0 14 9 25 22 25
29 0 20 -29 45 -50 45 -10 0 -26 -7 -34 -16z"/>
<path d="M4896 3024 c-23 -22 -20 -39 9 -58 23 -15 27 -15 50 0 14 9 25 22 25
29 0 20 -29 45 -50 45 -10 0 -26 -7 -34 -16z"/>
<path d="M5416 2994 c-23 -22 -20 -39 9 -58 23 -15 27 -15 50 0 14 9 25 22 25
29 0 20 -29 45 -50 45 -10 0 -26 -7 -34 -16z"/>
<path d="M5186 2854 c-22 -21 -20 -39 5 -63 17 -15 26 -18 40 -10 33 17 40 44
18 68 -24 25 -42 27 -63 5z"/>
<path d="M5057 2812 c-22 -25 -21 -37 5 -62 28 -26 30 -25 62 7 l26 26 -22 24
c-26 28 -49 29 -71 5z"/>
<path d="M4696 2764 c-23 -22 -20 -39 9 -58 23 -15 27 -15 50 0 14 9 25 22 25
29 0 20 -29 45 -50 45 -10 0 -26 -7 -34 -16z"/>
<path d="M4145 2484 c-20 -20 -16 -42 10 -60 18 -12 24 -11 43 2 27 19 28 50
3 64 -27 14 -37 13 -56 -6z"/>
<path d="M4928 2493 c12 -2 32 -2 45 0 12 2 2 4 -23 4 -25 0 -35 -2 -22 -4z"/>
<path d="M1687 2392 c-22 -25 -21 -37 5 -62 28 -26 30 -25 62 7 l26 26 -22 24
c-26 28 -49 29 -71 5z"/>
<path d="M2866 2124 c-22 -21 -20 -39 5 -63 24 -22 51 -15 68 18 8 14 5 23
-10 40 -24 25 -42 27 -63 5z"/>
<path d="M2596 2024 c-22 -21 -20 -39 5 -63 24 -22 51 -15 68 18 8 14 5 23
-10 40 -24 25 -42 27 -63 5z"/>
<path d="M2796 1884 c-22 -21 -20 -39 5 -63 24 -22 51 -15 68 18 8 14 5 23
-10 40 -24 25 -42 27 -63 5z"/>
<path d="M3125 1874 c-20 -20 -16 -42 10 -60 18 -12 24 -11 43 2 27 19 28 50
3 64 -27 14 -37 13 -56 -6z"/>
<path d="M2507 1762 c-22 -25 -21 -37 5 -62 28 -26 30 -25 62 7 l26 26 -22 24
c-26 28 -49 29 -71 5z"/>
<path d="M2256 1664 c-22 -21 -20 -39 5 -63 17 -15 26 -18 40 -10 33 17 40 44
18 68 -24 25 -42 27 -63 5z"/>
<path d="M2866 1654 c-22 -21 -20 -39 5 -63 24 -22 51 -15 68 18 8 14 5 23
-10 40 -24 25 -42 27 -63 5z"/>
<path d="M3845 1644 c-20 -20 -16 -42 10 -60 18 -12 24 -11 43 2 27 19 28 50
3 64 -27 14 -37 13 -56 -6z"/>
<path d="M3106 1614 c-23 -22 -20 -39 9 -58 23 -15 27 -15 50 0 29 19 32 36 9
58 -20 20 -48 20 -68 0z"/>
<path d="M2746 1544 c-22 -21 -20 -39 5 -63 24 -22 51 -15 68 18 8 14 5 23
-10 40 -24 25 -42 27 -63 5z"/>
<path d="M2846 1444 c-22 -21 -20 -39 5 -63 24 -22 51 -15 68 18 8 14 5 23
-10 40 -24 25 -42 27 -63 5z"/>
<path d="M2356 1434 c-23 -22 -20 -39 9 -58 23 -15 27 -15 50 0 29 19 32 36 9
58 -20 20 -48 20 -68 0z"/>
<path d="M3482 1410 c0 -14 2 -19 5 -12 2 6 2 18 0 25 -3 6 -5 1 -5 -13z"/>
<path d="M2617 1402 c-22 -25 -21 -37 5 -62 28 -26 30 -25 62 7 l26 26 -22 24
c-26 28 -49 29 -71 5z"/>
<path d="M2077 1392 c-22 -25 -21 -37 5 -62 28 -26 30 -25 62 7 l26 26 -22 24
c-26 28 -49 29 -71 5z"/>
<path d="M2946 1344 c-22 -21 -20 -39 5 -63 17 -15 26 -18 40 -10 33 17 40 44
18 68 -24 25 -42 27 -63 5z"/>
<path d="M3245 1274 c-20 -20 -16 -42 10 -60 18 -12 24 -11 43 2 27 19 28 50
3 64 -27 14 -37 13 -56 -6z"/>
<path d="M2456 1144 c-22 -21 -20 -39 5 -63 17 -15 26 -18 40 -10 33 17 40 44
18 68 -24 25 -42 27 -63 5z"/>
<path d="M3017 1142 c-22 -25 -21 -37 5 -62 28 -26 30 -25 62 7 l26 26 -22 24
c-26 28 -49 29 -71 5z"/>
<path d="M1466 1094 c-22 -21 -20 -39 5 -63 17 -15 26 -18 40 -10 33 17 40 44
18 68 -24 25 -42 27 -63 5z"/>
<path d="M2667 1092 c-22 -25 -21 -37 5 -62 28 -26 30 -25 62 7 l26 26 -22 24
c-26 28 -49 29 -71 5z"/>
<path d="M2146 1074 c-22 -21 -20 -39 5 -63 17 -15 26 -18 40 -10 33 17 40 44
18 68 -24 25 -42 27 -63 5z"/>
<path d="M3187 1062 c-22 -25 -21 -37 5 -62 28 -26 30 -25 62 7 l26 26 -22 24
c-26 28 -49 29 -71 5z"/>
<path d="M2956 914 c-22 -21 -20 -39 5 -63 17 -15 26 -18 40 -10 33 17 40 44
18 68 -24 25 -42 27 -63 5z"/>
<path d="M2826 874 c-23 -22 -20 -39 9 -58 23 -15 27 -15 50 0 14 9 25 22 25
29 0 20 -29 45 -50 45 -10 0 -26 -7 -34 -16z"/>
<path d="M2467 832 c-22 -25 -21 -37 5 -62 28 -26 30 -25 62 7 l26 26 -22 24
c-26 28 -49 29 -71 5z"/>
<path d="M2638 573 c12 -2 32 -2 45 0 12 2 2 4 -23 4 -25 0 -35 -2 -22 -4z"/>
<path d="M3397 442 c-22 -25 -21 -37 5 -62 28 -26 30 -25 62 7 l26 26 -22 24
c-26 28 -49 29 -71 5z"/>
</g>
</svg>
